G04*
G04 #@! TF.GenerationSoftware,Altium Limited,Altium Designer,24.9.1 (31)*
G04*
G04 Layer_Color=255*
%FSLAX44Y44*%
%MOMM*%
G71*
G04*
G04 #@! TF.SameCoordinates,B5823E4F-61C2-4C15-8B31-12C9E9E13820*
G04*
G04*
G04 #@! TF.FilePolarity,Positive*
G04*
G01*
G75*
%ADD17R,1.1000X1.3000*%
%ADD18R,1.8796X0.6096*%
%ADD19R,1.5000X0.8500*%
%ADD20R,0.8500X1.5000*%
%ADD36R,1.6500X1.6500*%
%ADD37C,1.6500*%
%ADD38C,2.0000*%
%ADD39C,1.7780*%
%ADD40R,1.7780X1.7780*%
%ADD41R,1.7780X1.7780*%
D17*
X486410Y769620D02*
D03*
X504190D02*
D03*
D18*
X369600Y816550D02*
D03*
Y841950D02*
D03*
Y803850D02*
D03*
Y829250D02*
D03*
Y753050D02*
D03*
Y765750D02*
D03*
Y791150D02*
D03*
X420400Y829250D02*
D03*
X369600Y778450D02*
D03*
X420400Y841950D02*
D03*
Y753050D02*
D03*
Y816550D02*
D03*
Y765750D02*
D03*
Y791150D02*
D03*
Y778450D02*
D03*
Y803850D02*
D03*
D19*
X442500Y773750D02*
D03*
Y756250D02*
D03*
Y806250D02*
D03*
Y788750D02*
D03*
Y838750D02*
D03*
Y821250D02*
D03*
D20*
X386250Y732500D02*
D03*
X368750D02*
D03*
X406250D02*
D03*
X423750D02*
D03*
X479946Y790956D02*
D03*
X497446Y790956D02*
D03*
D36*
X600000Y721700D02*
D03*
D37*
Y747100D02*
D03*
Y772500D02*
D03*
Y797900D02*
D03*
Y823300D02*
D03*
Y848700D02*
D03*
D38*
X345000Y745000D02*
D03*
X516636Y806196D02*
D03*
D39*
X297000Y847850D02*
D03*
Y822450D02*
D03*
Y746250D02*
D03*
Y771650D02*
D03*
Y797050D02*
D03*
X523300Y721300D02*
D03*
X497900D02*
D03*
D40*
X297000Y720850D02*
D03*
D41*
X472500Y721300D02*
D03*
M02*
