G04*
G04 #@! TF.GenerationSoftware,Altium Limited,Altium Designer,24.9.1 (31)*
G04*
G04 Layer_Physical_Order=1*
G04 Layer_Color=255*
%FSLAX44Y44*%
%MOMM*%
G71*
G04*
G04 #@! TF.SameCoordinates,B5823E4F-61C2-4C15-8B31-12C9E9E13820*
G04*
G04*
G04 #@! TF.FilePolarity,Positive*
G04*
G01*
G75*
%ADD17R,1.1000X1.3000*%
%ADD18R,1.8796X0.6096*%
%ADD19R,1.5000X0.8500*%
%ADD20R,0.8500X1.5000*%
%ADD21C,0.5080*%
%ADD32C,0.4572*%
%ADD33C,0.3048*%
%ADD34C,0.6350*%
%ADD35C,1.2700*%
%ADD36R,1.6500X1.6500*%
%ADD37C,1.6500*%
%ADD38C,2.0000*%
%ADD39C,1.7780*%
%ADD40R,1.7780X1.7780*%
%ADD41R,1.7780X1.7780*%
%ADD42C,0.7000*%
G36*
X632410Y704009D02*
X256155D01*
X256156Y864690D01*
X632410D01*
Y704009D01*
D02*
G37*
%LPC*%
G36*
X601354Y858982D02*
X598646D01*
X596031Y858281D01*
X593687Y856928D01*
X593448Y856689D01*
X595084Y855053D01*
X593647Y853616D01*
X592011Y855252D01*
X591772Y855013D01*
X590419Y852669D01*
X589718Y850054D01*
Y847346D01*
X590419Y844731D01*
X591772Y842387D01*
X592011Y842148D01*
X593647Y843783D01*
X595084Y842347D01*
X593448Y840711D01*
X593687Y840472D01*
X596031Y839119D01*
X598646Y838418D01*
X601354D01*
X603969Y839119D01*
X606313Y840472D01*
X606552Y840711D01*
X604916Y842347D01*
X606353Y843783D01*
X607989Y842148D01*
X608228Y842387D01*
X609581Y844731D01*
X610282Y847346D01*
Y850054D01*
X609581Y852669D01*
X608228Y855013D01*
X607989Y855252D01*
X606353Y853616D01*
X604916Y855053D01*
X606552Y856689D01*
X606313Y856928D01*
X603969Y858281D01*
X601354Y858982D01*
D02*
G37*
G36*
X298438Y858772D02*
X295562D01*
X292784Y858028D01*
X290294Y856590D01*
X289995Y856292D01*
X291628Y854659D01*
X290191Y853222D01*
X288559Y854855D01*
X288260Y854556D01*
X286822Y852066D01*
X286078Y849288D01*
Y846412D01*
X286822Y843634D01*
X288260Y841144D01*
X288559Y840845D01*
X290191Y842478D01*
X291628Y841041D01*
X289995Y839409D01*
X290294Y839110D01*
X292784Y837672D01*
X295562Y836928D01*
X298438D01*
X301216Y837672D01*
X303706Y839110D01*
X304005Y839409D01*
X302372Y841041D01*
X303809Y842478D01*
X305441Y840845D01*
X305740Y841144D01*
X307178Y843634D01*
X307922Y846412D01*
Y849288D01*
X307178Y852066D01*
X305740Y854556D01*
X305441Y854855D01*
X303809Y853222D01*
X302372Y854659D01*
X304005Y856292D01*
X303706Y856590D01*
X301216Y858028D01*
X298438Y858772D01*
D02*
G37*
G36*
X348471Y847034D02*
X346473D01*
X344626Y846269D01*
X343213Y844856D01*
X342448Y843009D01*
Y841011D01*
X343213Y839164D01*
X344626Y837751D01*
X346473Y836986D01*
X348471D01*
X350318Y837751D01*
X350786Y838219D01*
X351058Y838317D01*
X351190Y838436D01*
X351270Y838495D01*
X351366Y838553D01*
X351482Y838608D01*
X351619Y838661D01*
X351783Y838708D01*
X351973Y838748D01*
X352191Y838779D01*
X352436Y838799D01*
X352750Y838807D01*
X352897Y838872D01*
X356994D01*
X357141Y838807D01*
X357669Y838793D01*
X358073Y838757D01*
X358388Y838705D01*
X358606Y838646D01*
X358667Y838622D01*
X358678Y838601D01*
Y837378D01*
X360233Y837283D01*
X360271Y837299D01*
X360405Y837292D01*
X360564Y837378D01*
X380522D01*
Y846522D01*
X361218D01*
X360568Y846522D01*
X360412Y846607D01*
X360273Y846600D01*
X360233Y846617D01*
X358678Y846522D01*
X356239Y845088D01*
X352927D01*
X352780Y845153D01*
X352467Y845161D01*
X352224Y845181D01*
X352009Y845212D01*
X351822Y845253D01*
X351662Y845300D01*
X351528Y845352D01*
X351417Y845407D01*
X351326Y845463D01*
X351249Y845522D01*
X351120Y845642D01*
X350839Y845748D01*
X350318Y846269D01*
X348471Y847034D01*
D02*
G37*
G36*
X357107Y834334D02*
X356350Y834334D01*
X355109D01*
X353262Y833569D01*
X351849Y832156D01*
X351084Y830309D01*
Y828311D01*
X351849Y826464D01*
X353262Y825051D01*
X355109Y824286D01*
X357107D01*
X358439Y824838D01*
X358678Y824678D01*
X360233Y824583D01*
X360271Y824599D01*
X360405Y824592D01*
X360564Y824678D01*
X380522D01*
Y833822D01*
X361218D01*
X360568Y833822D01*
X360412Y833907D01*
X360273Y833900D01*
X360233Y833917D01*
X358678Y833822D01*
X357961Y834056D01*
X357107Y834334D01*
D02*
G37*
G36*
X499000Y846194D02*
X495585Y845744D01*
X492403Y844426D01*
X489670Y842329D01*
X487574Y839597D01*
X486256Y836415D01*
X485806Y833000D01*
X486256Y829585D01*
X487574Y826403D01*
X489670Y823671D01*
X492403Y821574D01*
X495585Y820256D01*
X499000Y819806D01*
X502415Y820256D01*
X505597Y821574D01*
X508330Y823671D01*
X510426Y826403D01*
X511744Y829585D01*
X512194Y833000D01*
X511744Y836415D01*
X510426Y839597D01*
X508330Y842329D01*
X505597Y844426D01*
X502415Y845744D01*
X499000Y846194D01*
D02*
G37*
G36*
X601287Y833074D02*
X598713D01*
X596227Y832408D01*
X593999Y831121D01*
X592179Y829301D01*
X590892Y827073D01*
X590226Y824587D01*
Y822013D01*
X590892Y819527D01*
X592179Y817299D01*
X593999Y815479D01*
X596227Y814192D01*
X598713Y813526D01*
X601287D01*
X603773Y814192D01*
X606001Y815479D01*
X607821Y817299D01*
X609108Y819527D01*
X609774Y822013D01*
Y824587D01*
X609108Y827073D01*
X607821Y829301D01*
X606001Y831121D01*
X603773Y832408D01*
X601287Y833074D01*
D02*
G37*
G36*
X298371Y832864D02*
X295629D01*
X292980Y832154D01*
X290606Y830783D01*
X288667Y828844D01*
X287296Y826470D01*
X286586Y823821D01*
Y821079D01*
X287296Y818430D01*
X288667Y816056D01*
X290606Y814117D01*
X292980Y812746D01*
X295629Y812036D01*
X298371D01*
X301020Y812746D01*
X303394Y814117D01*
X304198Y814921D01*
X304484Y815030D01*
X306228Y816685D01*
X307001Y817327D01*
X307745Y817882D01*
X308442Y818339D01*
X309089Y818699D01*
X309680Y818965D01*
X310212Y819143D01*
X310681Y819242D01*
X311213Y819281D01*
X311335Y819342D01*
X327119D01*
X332109Y814352D01*
X333117Y813679D01*
X334306Y813442D01*
X356995D01*
X357142Y813377D01*
X357671Y813363D01*
X358078Y813328D01*
X358395Y813276D01*
X358616Y813218D01*
X358678Y813193D01*
Y811978D01*
X360233Y811883D01*
X360271Y811899D01*
X360409Y811892D01*
X360566Y811978D01*
X380522D01*
Y821122D01*
X361218D01*
X360565Y821122D01*
X360409Y821208D01*
X360272Y821201D01*
X360233Y821217D01*
X358678Y821122D01*
X356241Y819658D01*
X335593D01*
X330604Y824648D01*
X329595Y825321D01*
X328406Y825558D01*
X311335D01*
X311213Y825619D01*
X310681Y825658D01*
X310212Y825757D01*
X309680Y825935D01*
X309089Y826201D01*
X308442Y826561D01*
X307745Y827018D01*
X307017Y827561D01*
X305377Y828991D01*
X304506Y829848D01*
X304209Y829969D01*
X303394Y830783D01*
X301020Y832154D01*
X298371Y832864D01*
D02*
G37*
G36*
X360233Y808517D02*
X358678Y808422D01*
X356241Y806958D01*
X354600D01*
X353411Y806721D01*
X352402Y806047D01*
X304939Y758584D01*
X304809Y758541D01*
X304405Y758192D01*
X304004Y757930D01*
X303502Y757680D01*
X302895Y757450D01*
X302184Y757248D01*
X301368Y757078D01*
X300469Y756947D01*
X298298Y756798D01*
X297076Y756789D01*
X296781Y756664D01*
X295629D01*
X292980Y755954D01*
X290606Y754583D01*
X288667Y752644D01*
X287296Y750270D01*
X286586Y747621D01*
Y744879D01*
X287296Y742230D01*
X288667Y739856D01*
X290606Y737917D01*
X292980Y736546D01*
X295629Y735836D01*
X298371D01*
X301020Y736546D01*
X303394Y737917D01*
X305333Y739856D01*
X306704Y742230D01*
X307414Y744879D01*
Y746016D01*
X307539Y746295D01*
X307602Y748698D01*
X307694Y749700D01*
X307828Y750618D01*
X307998Y751434D01*
X308200Y752145D01*
X308430Y752752D01*
X308680Y753254D01*
X308942Y753655D01*
X309291Y754059D01*
X309334Y754189D01*
X355887Y800742D01*
X356995D01*
X357142Y800677D01*
X357671Y800663D01*
X358078Y800628D01*
X358395Y800576D01*
X358616Y800518D01*
X358678Y800493D01*
Y799278D01*
X360233Y799183D01*
X360271Y799199D01*
X360409Y799192D01*
X360566Y799278D01*
X380522D01*
Y808422D01*
X361218D01*
X360565Y808422D01*
X360409Y808508D01*
X360272Y808501D01*
X360233Y808517D01*
D02*
G37*
G36*
X385809Y796234D02*
X383811D01*
X382991Y795894D01*
X380522Y795722D01*
X378968Y795817D01*
X378927Y795800D01*
X378788Y795807D01*
X378632Y795722D01*
X358678D01*
Y786578D01*
X378636D01*
X378795Y786492D01*
X378929Y786499D01*
X378968Y786483D01*
X380522Y786578D01*
X383033Y786508D01*
X383811Y786186D01*
X385809D01*
X387656Y786951D01*
X389069Y788364D01*
X389834Y790211D01*
Y792209D01*
X389069Y794056D01*
X387656Y795469D01*
X385809Y796234D01*
D02*
G37*
G36*
X518153Y817720D02*
X515119D01*
X512188Y816935D01*
X509560Y815417D01*
X507415Y813272D01*
X505897Y810644D01*
X505112Y807713D01*
Y804679D01*
X505897Y801748D01*
X507415Y799120D01*
X509560Y796974D01*
X512188Y795457D01*
X515119Y794672D01*
X518153D01*
X521084Y795457D01*
X523712Y796974D01*
X525858Y799120D01*
X527375Y801748D01*
X528160Y804679D01*
Y807713D01*
X527375Y810644D01*
X525858Y813272D01*
X523712Y815417D01*
X521084Y816935D01*
X518153Y817720D01*
D02*
G37*
G36*
X545024Y855984D02*
X437676D01*
X436487Y855747D01*
X435479Y855073D01*
X428791Y848386D01*
X428645Y848332D01*
X427483Y847252D01*
X427034Y846894D01*
X426644Y846622D01*
X426469Y846522D01*
X425687D01*
X425457Y846617D01*
X425332Y846565D01*
X425200Y846597D01*
X425077Y846522D01*
X409478D01*
Y837378D01*
X430971D01*
X432215Y835600D01*
X430972Y833822D01*
X430774Y833822D01*
X411368D01*
X411212Y833907D01*
X411073Y833900D01*
X411032Y833917D01*
X409478Y833822D01*
X409060Y833678D01*
X406938Y833337D01*
X406706Y833569D01*
X404859Y834334D01*
X402861D01*
X401014Y833569D01*
X399601Y832156D01*
X398836Y830309D01*
Y828311D01*
X399601Y826464D01*
X401014Y825051D01*
X402861Y824286D01*
X404859D01*
X406706Y825051D01*
X406938Y825283D01*
X408317Y825102D01*
X409478Y824678D01*
X411032Y824583D01*
X411071Y824599D01*
X411205Y824592D01*
X411364Y824678D01*
X430936D01*
X431322Y824678D01*
X432233Y824284D01*
Y823288D01*
X429819Y821214D01*
X429767Y821217D01*
X429728Y821201D01*
X429591Y821208D01*
X429434Y821122D01*
X409478D01*
Y811978D01*
X429434D01*
X429591Y811892D01*
X429728Y811899D01*
X429767Y811883D01*
X431322Y811978D01*
X431494Y811903D01*
X431679Y810859D01*
X429767Y808517D01*
X429538Y808422D01*
X409478D01*
Y799278D01*
X431322D01*
Y799544D01*
X433476Y800476D01*
X435022Y800381D01*
X435063Y800397D01*
X435206Y800390D01*
X435364Y800476D01*
X451524D01*
Y812024D01*
X439565D01*
X438082Y814475D01*
X438087Y814564D01*
X439138Y815476D01*
X451524D01*
Y827024D01*
X433862D01*
X433476Y827024D01*
X431322Y827956D01*
Y829517D01*
X432260Y831669D01*
X432968Y832468D01*
X433357Y832468D01*
X452032Y832468D01*
Y845032D01*
X444296D01*
X444307Y844909D01*
X444383Y844447D01*
X444490Y844047D01*
X444579Y843829D01*
X445172D01*
X444996Y843638D01*
X444839Y843428D01*
X444822Y843401D01*
X444993Y843216D01*
X445221Y843062D01*
X445480Y842970D01*
X445770Y842939D01*
X444574D01*
X444478Y842687D01*
X444394Y842402D01*
X444329Y842099D01*
X444283Y841777D01*
X444255Y841437D01*
X444246Y841077D01*
X441198D01*
X441189Y841437D01*
X441161Y841777D01*
X441115Y842099D01*
X441050Y842402D01*
X440966Y842687D01*
X440870Y842939D01*
X439674D01*
X439964Y842970D01*
X440223Y843062D01*
X440451Y843216D01*
X440622Y843401D01*
X440605Y843428D01*
X440448Y843638D01*
X440272Y843829D01*
X440866D01*
X440954Y844047D01*
X441061Y844447D01*
X441137Y844909D01*
X441148Y845032D01*
X437546D01*
X436574Y847379D01*
X438963Y849768D01*
X543737D01*
X588400Y805105D01*
X588445Y804973D01*
X588777Y804591D01*
X589025Y804219D01*
X589260Y803760D01*
X589475Y803209D01*
X589666Y802566D01*
X589826Y801831D01*
X589949Y801024D01*
X590092Y799068D01*
X590101Y797968D01*
X590226Y797673D01*
Y796613D01*
X590892Y794127D01*
X592179Y791899D01*
X593999Y790079D01*
X596227Y788792D01*
X598713Y788126D01*
X601287D01*
X603773Y788792D01*
X606001Y790079D01*
X607821Y791899D01*
X609108Y794127D01*
X609774Y796613D01*
Y799187D01*
X609108Y801673D01*
X607821Y803901D01*
X606001Y805721D01*
X603773Y807008D01*
X601287Y807674D01*
X600242D01*
X599964Y807798D01*
X597793Y807860D01*
X596895Y807948D01*
X596069Y808074D01*
X595334Y808234D01*
X594691Y808425D01*
X594140Y808641D01*
X593681Y808875D01*
X593309Y809123D01*
X592927Y809455D01*
X592795Y809500D01*
X547221Y855073D01*
X546213Y855747D01*
X545024Y855984D01*
D02*
G37*
G36*
X486228Y800488D02*
X473664D01*
Y792530D01*
X473787Y792541D01*
X474249Y792617D01*
X474649Y792724D01*
X474987Y792861D01*
X475264Y793029D01*
X475480Y793227D01*
X475634Y793455D01*
X475726Y793714D01*
X475757Y794004D01*
Y787908D01*
X475726Y788198D01*
X475634Y788457D01*
X475480Y788685D01*
X475264Y788883D01*
X474987Y789051D01*
X474649Y789188D01*
X474249Y789295D01*
X473787Y789371D01*
X473664Y789382D01*
Y781424D01*
X486228D01*
Y800488D01*
D02*
G37*
G36*
X298371Y807464D02*
X295629D01*
X292980Y806754D01*
X290606Y805383D01*
X288667Y803444D01*
X287296Y801070D01*
X286586Y798421D01*
Y795679D01*
X287296Y793030D01*
X288667Y790656D01*
X290606Y788717D01*
X292980Y787346D01*
X295629Y786636D01*
X298371D01*
X301020Y787346D01*
X303394Y788717D01*
X305333Y790656D01*
X306704Y793030D01*
X307414Y795679D01*
Y798421D01*
X306704Y801070D01*
X305333Y803444D01*
X303394Y805383D01*
X301020Y806754D01*
X298371Y807464D01*
D02*
G37*
G36*
X403589Y796234D02*
X401591D01*
X399744Y795469D01*
X398331Y794056D01*
X397566Y792209D01*
Y791510D01*
X397442Y791242D01*
X397435Y791066D01*
X397421Y790968D01*
X397395Y790861D01*
X397354Y790742D01*
X397295Y790610D01*
X397214Y790462D01*
X397109Y790300D01*
X396978Y790125D01*
X396819Y789938D01*
X396603Y789711D01*
X396546Y789561D01*
X388543Y781558D01*
X382205D01*
X382058Y781623D01*
X381529Y781637D01*
X381123Y781672D01*
X380805Y781724D01*
X380584Y781782D01*
X380522Y781807D01*
Y783022D01*
X378968Y783117D01*
X378928Y783101D01*
X378791Y783108D01*
X378634Y783022D01*
X358678D01*
Y773878D01*
X377982D01*
X378634Y773878D01*
X378791Y773792D01*
X378928Y773799D01*
X378968Y773783D01*
X380522Y773878D01*
X382959Y775342D01*
X389830D01*
X391019Y775579D01*
X392027Y776253D01*
X400941Y785166D01*
X401091Y785223D01*
X401318Y785439D01*
X401505Y785598D01*
X401680Y785729D01*
X401842Y785834D01*
X401990Y785915D01*
X402122Y785974D01*
X402241Y786015D01*
X402348Y786041D01*
X402446Y786055D01*
X402622Y786062D01*
X402890Y786186D01*
X403589D01*
X405436Y786951D01*
X406849Y788364D01*
X406938Y788579D01*
X409478Y788073D01*
Y786578D01*
X429538D01*
X429767Y786483D01*
X431694Y784149D01*
X431523Y783109D01*
X431322Y783022D01*
X431027Y783022D01*
X431026Y783022D01*
X430306Y783022D01*
X429002Y783022D01*
X409478D01*
Y773878D01*
X424426D01*
X425285Y772862D01*
X424107Y770322D01*
X409478D01*
Y767376D01*
X409434Y767305D01*
X409466Y767171D01*
X409413Y767043D01*
X409478Y766887D01*
Y766015D01*
X409394Y765869D01*
X409131Y765494D01*
X408260Y764468D01*
X407691Y763879D01*
X407631Y763725D01*
X404053Y760147D01*
X403379Y759139D01*
X403142Y757950D01*
Y743207D01*
X403077Y743061D01*
X403063Y742533D01*
X403027Y742128D01*
X402975Y741814D01*
X402916Y741596D01*
X402892Y741535D01*
X402871Y741524D01*
X400476D01*
Y725092D01*
X392532D01*
Y729965D01*
X392096Y729848D01*
X391590Y729642D01*
X391175Y729391D01*
X390853Y729094D01*
X390623Y728751D01*
X390485Y728362D01*
X390439Y727928D01*
Y737072D01*
X390485Y736638D01*
X390623Y736249D01*
X390853Y735906D01*
X391175Y735609D01*
X391590Y735358D01*
X392096Y735152D01*
X392532Y735035D01*
Y742032D01*
X379968D01*
Y728487D01*
X377428Y727490D01*
X376398Y728600D01*
X375580Y729624D01*
X374938Y730548D01*
X374524Y731274D01*
Y733813D01*
X374618Y734062D01*
X374563Y734184D01*
X374591Y734314D01*
X374524Y734417D01*
Y738984D01*
X374524Y739740D01*
X374619Y739969D01*
X374524Y741524D01*
X374243D01*
X374030Y744802D01*
X374115Y745772D01*
X374250Y746587D01*
X374425Y747239D01*
X374622Y747723D01*
X374817Y748044D01*
X374985Y748226D01*
X375128Y748322D01*
X375289Y748379D01*
X375699Y748422D01*
X375801Y748478D01*
X380522D01*
Y757622D01*
X370701D01*
X369600Y757841D01*
X369302D01*
X368201Y757622D01*
X358678D01*
Y748478D01*
X362550D01*
X362651Y748422D01*
X363061Y748379D01*
X363222Y748322D01*
X363365Y748226D01*
X363534Y748044D01*
X363728Y747724D01*
X363925Y747239D01*
X364100Y746587D01*
X364235Y745772D01*
X364317Y744840D01*
X364224Y743231D01*
X364134Y742511D01*
X364025Y741936D01*
X363913Y741538D01*
X363907Y741524D01*
X362976Y741524D01*
X362881Y739969D01*
X362929Y739854D01*
X362922Y739604D01*
X362976Y739527D01*
Y733786D01*
X362906Y733675D01*
X362938Y733530D01*
X362881Y733391D01*
X362976Y733162D01*
Y731237D01*
X362917Y731108D01*
X362466Y730363D01*
X361847Y729504D01*
X360023Y727383D01*
X358856Y726178D01*
X358825Y726100D01*
X358366Y725641D01*
X312327D01*
X312253Y725674D01*
X311091Y725704D01*
X310120Y725790D01*
X309305Y725925D01*
X308653Y726100D01*
X308168Y726297D01*
X307848Y726491D01*
X307666Y726660D01*
X307570Y726803D01*
X307513Y726964D01*
X307470Y727374D01*
X307414Y727476D01*
Y731264D01*
X286586D01*
Y710436D01*
X307414D01*
Y714224D01*
X307470Y714326D01*
X307513Y714736D01*
X307570Y714897D01*
X307666Y715040D01*
X307848Y715209D01*
X308168Y715403D01*
X308653Y715600D01*
X309305Y715775D01*
X310120Y715910D01*
X311091Y715995D01*
X312253Y716026D01*
X312327Y716059D01*
X360350D01*
X362183Y716424D01*
X363738Y717462D01*
X365583Y719308D01*
X365657Y719336D01*
X368008Y721534D01*
X368592Y722012D01*
X369336Y721507D01*
X370982Y720158D01*
X371830Y719348D01*
X371906Y719318D01*
X374311Y716913D01*
X375866Y715875D01*
X377699Y715510D01*
X414801D01*
X416634Y715875D01*
X418189Y716913D01*
X420594Y719318D01*
X420670Y719348D01*
X421534Y720173D01*
X422350Y720880D01*
X423144Y721494D01*
X423915Y722017D01*
X424659Y722450D01*
X425376Y722795D01*
X426064Y723056D01*
X426724Y723238D01*
X427357Y723344D01*
X428063Y723383D01*
X428063Y723384D01*
X428254Y723476D01*
X429524Y723476D01*
X429618Y724976D01*
X429610Y724999D01*
X429617Y725124D01*
X430853Y727275D01*
X431415Y727425D01*
X432230Y727560D01*
X433201Y727646D01*
X434363Y727676D01*
X434437Y727709D01*
X438220D01*
X448017Y717912D01*
X449572Y716874D01*
X451405Y716509D01*
X457173D01*
X457247Y716476D01*
X458409Y716446D01*
X459380Y716360D01*
X460195Y716225D01*
X460847Y716050D01*
X461331Y715853D01*
X461652Y715658D01*
X461834Y715490D01*
X461930Y715347D01*
X461987Y715186D01*
X462030Y714777D01*
X462086Y714675D01*
Y710886D01*
X482914D01*
Y731714D01*
X479126D01*
X479024Y731769D01*
X478614Y731813D01*
X478453Y731870D01*
X478310Y731966D01*
X478142Y732148D01*
X477947Y732468D01*
X477750Y732953D01*
X477575Y733605D01*
X477440Y734420D01*
X477354Y735391D01*
X477324Y736553D01*
X477291Y736627D01*
Y752725D01*
X481990Y757425D01*
X482063Y757452D01*
X484539Y759752D01*
X485573Y760581D01*
X486502Y761230D01*
X487140Y761596D01*
X489765D01*
X489921Y761531D01*
X490047Y761584D01*
X490180Y761552D01*
X490252Y761596D01*
X493434D01*
Y777644D01*
X479386D01*
Y772462D01*
X479342Y772390D01*
X479374Y772257D01*
X479321Y772131D01*
X479386Y771975D01*
Y769350D01*
X479020Y768712D01*
X478384Y767801D01*
X476487Y765563D01*
X475264Y764296D01*
X475233Y764219D01*
X469112Y758098D01*
X468074Y756543D01*
X467709Y754710D01*
Y736627D01*
X467676Y736553D01*
X467645Y735391D01*
X467560Y734420D01*
X467425Y733605D01*
X467250Y732953D01*
X467053Y732468D01*
X466858Y732148D01*
X466690Y731966D01*
X466547Y731870D01*
X466386Y731813D01*
X465976Y731769D01*
X465874Y731714D01*
X462086D01*
Y727925D01*
X462030Y727823D01*
X461987Y727414D01*
X461930Y727253D01*
X461834Y727110D01*
X461652Y726942D01*
X461332Y726747D01*
X460847Y726550D01*
X460195Y726375D01*
X459380Y726240D01*
X458409Y726154D01*
X457247Y726124D01*
X457173Y726091D01*
X453390D01*
X443593Y735888D01*
X442038Y736926D01*
X440205Y737291D01*
X434437D01*
X434363Y737324D01*
X433201Y737355D01*
X432230Y737440D01*
X431415Y737575D01*
X430763Y737750D01*
X430278Y737947D01*
X429958Y738141D01*
X429776Y738310D01*
X429680Y738453D01*
X429623Y738614D01*
X429580Y739024D01*
X429524Y739126D01*
Y741524D01*
X417976D01*
Y734373D01*
X417940Y734319D01*
X417968Y734187D01*
X417912Y734065D01*
X417976Y733896D01*
Y731888D01*
X417884Y731425D01*
Y731096D01*
X417574Y730556D01*
X416942Y729650D01*
X415063Y727429D01*
X414564Y726912D01*
X412024Y727935D01*
Y741524D01*
X409629D01*
X409608Y741535D01*
X409584Y741596D01*
X409525Y741814D01*
X409473Y742128D01*
X409437Y742533D01*
X409423Y743061D01*
X409358Y743207D01*
Y745988D01*
X409478Y748478D01*
X431322D01*
Y749265D01*
X431651Y749686D01*
X433476Y750476D01*
X435022Y750381D01*
X435090Y750409D01*
X435287Y750401D01*
X435410Y750476D01*
X451524D01*
Y762024D01*
X435280Y762024D01*
X433512Y762024D01*
X433476Y762024D01*
X431322Y762956D01*
X431322Y763703D01*
X431322Y763718D01*
Y767044D01*
X433476Y767976D01*
X433862Y767976D01*
X451524D01*
Y779524D01*
X435083D01*
X432685Y781736D01*
Y782634D01*
X433476Y782976D01*
X433790Y782976D01*
X433791Y782976D01*
X434076Y782976D01*
X435796Y782976D01*
X451524D01*
Y794524D01*
X435364D01*
X435206Y794610D01*
X435063Y794603D01*
X435022Y794619D01*
X433476Y794524D01*
X431322Y795456D01*
Y795722D01*
X409478D01*
Y794347D01*
X406938Y793841D01*
X406849Y794056D01*
X405436Y795469D01*
X403589Y796234D01*
D02*
G37*
G36*
X381030Y770830D02*
X358170D01*
Y760670D01*
X381030D01*
Y763369D01*
X380111Y763304D01*
X379699Y763220D01*
X379379Y763121D01*
X379150Y763007D01*
X379013Y762877D01*
X378968Y762732D01*
Y768767D01*
X379013Y768634D01*
X379150Y768515D01*
X379379Y768410D01*
X379699Y768318D01*
X380111Y768241D01*
X380613Y768178D01*
X381030Y768151D01*
Y770830D01*
D02*
G37*
G36*
X601287Y782274D02*
X598713D01*
X596227Y781608D01*
X593999Y780321D01*
X592179Y778501D01*
X590892Y776273D01*
X590226Y773787D01*
Y771213D01*
X590892Y768727D01*
X592179Y766499D01*
X593999Y764679D01*
X596227Y763392D01*
X598713Y762726D01*
X601287D01*
X603773Y763392D01*
X606001Y764679D01*
X607821Y766499D01*
X609108Y768727D01*
X609774Y771213D01*
Y773787D01*
X609108Y776273D01*
X607821Y778501D01*
X606001Y780321D01*
X603773Y781608D01*
X601287Y782274D01*
D02*
G37*
G36*
X503220Y799980D02*
X491672D01*
Y781932D01*
X497022D01*
X497093Y781888D01*
X497227Y781920D01*
X497355Y781867D01*
X497511Y781932D01*
X498383D01*
X498529Y781848D01*
X498904Y781585D01*
X499930Y780714D01*
X500479Y780184D01*
X500475Y779497D01*
X499853Y777644D01*
X497166D01*
Y761596D01*
X511214D01*
Y777644D01*
X507569D01*
X507548Y777655D01*
X507524Y777716D01*
X507465Y777934D01*
X507412Y778248D01*
X507377Y778653D01*
X507363Y779181D01*
X507298Y779327D01*
Y780962D01*
X507061Y782151D01*
X506387Y783159D01*
X505083Y784464D01*
X505029Y784610D01*
X503943Y785778D01*
X503580Y786230D01*
X503304Y786623D01*
X503220Y786769D01*
Y787641D01*
X503285Y787797D01*
X503232Y787925D01*
X503264Y788059D01*
X503220Y788130D01*
Y799980D01*
D02*
G37*
G36*
X298371Y782064D02*
X295629D01*
X292980Y781354D01*
X290606Y779983D01*
X288667Y778044D01*
X287296Y775670D01*
X286586Y773021D01*
Y770279D01*
X287296Y767630D01*
X288667Y765256D01*
X290606Y763317D01*
X292980Y761946D01*
X295629Y761236D01*
X298371D01*
X301020Y761946D01*
X303394Y763317D01*
X305333Y765256D01*
X306704Y767630D01*
X307414Y770279D01*
Y773021D01*
X306704Y775670D01*
X305333Y778044D01*
X303394Y779983D01*
X301020Y781354D01*
X298371Y782064D01*
D02*
G37*
G36*
X601287Y756874D02*
X598713D01*
X596227Y756208D01*
X593999Y754921D01*
X592179Y753101D01*
X590892Y750873D01*
X590226Y748387D01*
Y746298D01*
X589052Y745500D01*
X587773Y745159D01*
X585755Y747176D01*
X584110Y748438D01*
X582195Y749232D01*
X581167Y749367D01*
X580140Y749502D01*
X580139Y749502D01*
X518161D01*
X516105Y749232D01*
X514189Y748438D01*
X512545Y747176D01*
X512545Y747176D01*
X497082Y731714D01*
X496529D01*
X493880Y731004D01*
X491506Y729633D01*
X489567Y727694D01*
X488196Y725320D01*
X487486Y722671D01*
Y719929D01*
X488196Y717280D01*
X489567Y714906D01*
X491506Y712967D01*
X493880Y711596D01*
X496529Y710886D01*
X499271D01*
X501920Y711596D01*
X504294Y712967D01*
X506233Y714906D01*
X507604Y717280D01*
X508314Y719929D01*
Y720482D01*
X510346Y722514D01*
X512886Y721462D01*
Y719929D01*
X513596Y717280D01*
X514967Y714906D01*
X516906Y712967D01*
X519280Y711596D01*
X521929Y710886D01*
X524671D01*
X527320Y711596D01*
X529694Y712967D01*
X531633Y714906D01*
X533004Y717280D01*
X533714Y719929D01*
Y722671D01*
X533004Y725320D01*
X531633Y727694D01*
X529694Y729633D01*
X527320Y731004D01*
X527043Y731078D01*
X527377Y733618D01*
X576850D01*
X581554Y728915D01*
X581604Y728784D01*
X587192Y722899D01*
X589225Y720504D01*
X590226Y719179D01*
Y713710D01*
X590131Y713480D01*
X590226Y711926D01*
X591781Y711831D01*
X591832Y711852D01*
X591995Y711845D01*
X592613Y711926D01*
X609774D01*
Y729632D01*
X609866Y729821D01*
X609862Y729902D01*
X609869Y729920D01*
X609774Y731474D01*
X608507D01*
X608318Y731566D01*
X608318Y731566D01*
X608204Y731573D01*
X606904Y731650D01*
X605546Y731889D01*
X604137Y732292D01*
X602679Y732866D01*
X601170Y733614D01*
X599613Y734541D01*
X599259Y734786D01*
X600051Y737326D01*
X601287D01*
X603773Y737992D01*
X606001Y739279D01*
X607821Y741099D01*
X609108Y743327D01*
X609774Y745813D01*
Y748387D01*
X609108Y750873D01*
X607821Y753101D01*
X606001Y754921D01*
X603773Y756208D01*
X601287Y756874D01*
D02*
G37*
G36*
X346517Y756524D02*
X343483D01*
X340552Y755739D01*
X337924Y754221D01*
X335779Y752076D01*
X334261Y749448D01*
X333476Y746517D01*
Y743483D01*
X334261Y740552D01*
X335779Y737924D01*
X337924Y735779D01*
X340552Y734261D01*
X343483Y733476D01*
X346517D01*
X349448Y734261D01*
X352076Y735779D01*
X354221Y737924D01*
X355739Y740552D01*
X356524Y743483D01*
Y746517D01*
X355739Y749448D01*
X354221Y752076D01*
X352076Y754221D01*
X349448Y755739D01*
X346517Y756524D01*
D02*
G37*
%LPD*%
G36*
X350182Y844261D02*
X350390Y844102D01*
X350618Y843962D01*
X350864Y843840D01*
X351129Y843738D01*
X351413Y843653D01*
X351716Y843588D01*
X352037Y843541D01*
X352378Y843513D01*
X352737Y843504D01*
X352708Y840456D01*
X352349Y840447D01*
X352008Y840419D01*
X351686Y840373D01*
X351382Y840309D01*
X351097Y840227D01*
X350831Y840126D01*
X350583Y840006D01*
X350353Y839869D01*
X350143Y839713D01*
X349950Y839539D01*
X349992Y844438D01*
X350182Y844261D01*
D02*
G37*
G36*
X360233Y838932D02*
X360202Y839222D01*
X360111Y839481D01*
X359958Y839709D01*
X359745Y839908D01*
X359470Y840075D01*
X359135Y840212D01*
X358739Y840319D01*
X358282Y840395D01*
X357764Y840441D01*
X357184Y840456D01*
Y843504D01*
X357764Y843519D01*
X358282Y843562D01*
X358739Y843636D01*
X359135Y843738D01*
X359470Y843870D01*
X359745Y844031D01*
X359958Y844221D01*
X360111Y844441D01*
X360202Y844689D01*
X360233Y844967D01*
Y838932D01*
D02*
G37*
G36*
Y830914D02*
X360351Y830888D01*
X360673Y830841D01*
X361014Y830813D01*
X361373Y830804D01*
X361344Y827756D01*
X360985Y827747D01*
X360644Y827719D01*
X360322Y827673D01*
X360233Y827654D01*
Y826232D01*
X360202Y826522D01*
X360111Y826781D01*
X359958Y827009D01*
X359745Y827207D01*
X359470Y827375D01*
X359412Y827399D01*
X359219Y827307D01*
X358989Y827169D01*
X358779Y827013D01*
X358586Y826839D01*
X358593Y827643D01*
X358282Y827695D01*
X357764Y827741D01*
X357184Y827756D01*
Y830804D01*
X357764Y830819D01*
X358282Y830863D01*
X358621Y830917D01*
X358628Y831739D01*
X358818Y831561D01*
X359026Y831402D01*
X359254Y831262D01*
X359454Y831163D01*
X359470Y831170D01*
X359745Y831331D01*
X359958Y831521D01*
X360111Y831741D01*
X360202Y831989D01*
X360233Y832268D01*
Y830914D01*
D02*
G37*
G36*
X304255Y827780D02*
X305980Y826276D01*
X306798Y825666D01*
X307588Y825149D01*
X308347Y824726D01*
X309078Y824397D01*
X309779Y824162D01*
X310450Y824021D01*
X311092Y823974D01*
Y820926D01*
X310450Y820879D01*
X309779Y820738D01*
X309078Y820503D01*
X308347Y820174D01*
X307588Y819751D01*
X306798Y819234D01*
X305980Y818624D01*
X305132Y817919D01*
X303349Y816227D01*
Y828673D01*
X304255Y827780D01*
D02*
G37*
G36*
X360233Y813532D02*
X360202Y813816D01*
X360111Y814070D01*
X359958Y814294D01*
X359745Y814488D01*
X359470Y814652D01*
X359135Y814787D01*
X358739Y814892D01*
X358282Y814966D01*
X357764Y815011D01*
X357184Y815026D01*
Y818074D01*
X357764Y818089D01*
X358282Y818134D01*
X358739Y818208D01*
X359135Y818313D01*
X359470Y818447D01*
X359745Y818612D01*
X359958Y818806D01*
X360111Y819030D01*
X360202Y819284D01*
X360233Y819567D01*
Y813532D01*
D02*
G37*
G36*
Y800832D02*
X360202Y801116D01*
X360111Y801370D01*
X359958Y801594D01*
X359745Y801788D01*
X359470Y801953D01*
X359135Y802087D01*
X358739Y802191D01*
X358282Y802266D01*
X357764Y802311D01*
X357184Y802326D01*
Y805374D01*
X357764Y805389D01*
X358282Y805434D01*
X358739Y805508D01*
X359135Y805613D01*
X359470Y805747D01*
X359745Y805912D01*
X359958Y806106D01*
X360111Y806330D01*
X360202Y806584D01*
X360233Y806867D01*
Y800832D01*
D02*
G37*
G36*
X308043Y755137D02*
X307622Y754650D01*
X307246Y754075D01*
X306917Y753413D01*
X306633Y752664D01*
X306395Y751828D01*
X306202Y750905D01*
X306056Y749894D01*
X305955Y748796D01*
X305889Y746339D01*
X297089Y755139D01*
X298361Y755149D01*
X300644Y755306D01*
X301655Y755452D01*
X302578Y755645D01*
X303414Y755883D01*
X304163Y756167D01*
X304825Y756496D01*
X305400Y756871D01*
X305887Y757292D01*
X308043Y755137D01*
D02*
G37*
G36*
X378998Y793889D02*
X379089Y793641D01*
X379242Y793421D01*
X379455Y793231D01*
X379729Y793070D01*
X380065Y792938D01*
X380461Y792836D01*
X380648Y792806D01*
X380869Y792853D01*
X381153Y792938D01*
X381418Y793040D01*
X381664Y793162D01*
X381892Y793302D01*
X382100Y793461D01*
X382290Y793639D01*
X382332Y788739D01*
X382139Y788913D01*
X381929Y789069D01*
X381699Y789206D01*
X381451Y789326D01*
X381185Y789427D01*
X380900Y789509D01*
X380681Y789556D01*
X380461Y789519D01*
X380065Y789412D01*
X379729Y789275D01*
X379455Y789108D01*
X379242Y788909D01*
X379089Y788681D01*
X378998Y788422D01*
X378968Y788132D01*
Y794167D01*
X378998Y793889D01*
D02*
G37*
G36*
X431923Y844967D02*
X431319Y844342D01*
X430371Y843222D01*
X430026Y842726D01*
X429767Y842273D01*
X429595Y841864D01*
X429509Y841497D01*
Y841174D01*
X429595Y840894D01*
X429767Y840657D01*
X425457Y844967D01*
X425694Y844795D01*
X425974Y844709D01*
X426297D01*
X426664Y844795D01*
X427073Y844967D01*
X427526Y845226D01*
X428022Y845571D01*
X428560Y846002D01*
X429767Y847123D01*
X431923Y844967D01*
D02*
G37*
G36*
X411032Y826232D02*
X411002Y826522D01*
X410910Y826781D01*
X410758Y827009D01*
X410545Y827207D01*
X410271Y827375D01*
X409935Y827512D01*
X409539Y827619D01*
X409082Y827695D01*
X408610Y827737D01*
X408396Y827719D01*
X408074Y827673D01*
X407770Y827609D01*
X407485Y827527D01*
X407219Y827426D01*
X406971Y827307D01*
X406741Y827169D01*
X406531Y827013D01*
X406338Y826839D01*
X406380Y831738D01*
X406570Y831561D01*
X406778Y831402D01*
X407006Y831262D01*
X407252Y831140D01*
X407517Y831038D01*
X407801Y830954D01*
X408103Y830888D01*
X408425Y830841D01*
X408632Y830824D01*
X409082Y830863D01*
X409539Y830936D01*
X409935Y831038D01*
X410271Y831170D01*
X410545Y831331D01*
X410758Y831521D01*
X410910Y831741D01*
X411002Y831989D01*
X411032Y832267D01*
Y826232D01*
D02*
G37*
G36*
X429798Y819284D02*
X429889Y819030D01*
X430042Y818806D01*
X430255Y818612D01*
X430530Y818447D01*
X430865Y818313D01*
X431261Y818208D01*
X431718Y818134D01*
X432236Y818089D01*
X432816Y818074D01*
Y815026D01*
X432236Y815011D01*
X431718Y814966D01*
X431261Y814892D01*
X430865Y814787D01*
X430530Y814652D01*
X430255Y814488D01*
X430042Y814294D01*
X429889Y814070D01*
X429798Y813816D01*
X429767Y813532D01*
Y819567D01*
X429798Y819284D01*
D02*
G37*
G36*
X435031Y802030D02*
X435000Y802315D01*
X434909Y802569D01*
X434756Y802793D01*
X434543Y802988D01*
X434268Y803152D01*
X433933Y803287D01*
X433537Y803391D01*
X433080Y803466D01*
X432562Y803511D01*
X432403Y803515D01*
X432236Y803511D01*
X431718Y803465D01*
X431261Y803389D01*
X430865Y803282D01*
X430530Y803145D01*
X430255Y802977D01*
X430042Y802779D01*
X429889Y802551D01*
X429798Y802291D01*
X429767Y802002D01*
Y806868D01*
X429798Y806812D01*
X429889Y806762D01*
X430042Y806718D01*
X430255Y806680D01*
X430530Y806647D01*
X431261Y806600D01*
X432311Y806582D01*
X432566Y806589D01*
X433088Y806635D01*
X433549Y806711D01*
X433949Y806818D01*
X434287Y806955D01*
X434565Y807123D01*
X434781Y807321D01*
X434935Y807549D01*
X435029Y807808D01*
X435061Y808098D01*
X435031Y802030D01*
D02*
G37*
G36*
X592307Y807809D02*
X592846Y807450D01*
X593462Y807135D01*
X594154Y806863D01*
X594923Y806635D01*
X595769Y806451D01*
X596691Y806310D01*
X597690Y806213D01*
X599917Y806150D01*
X591750Y797982D01*
X591740Y799135D01*
X591590Y801209D01*
X591449Y802131D01*
X591265Y802977D01*
X591037Y803746D01*
X590765Y804438D01*
X590450Y805054D01*
X590091Y805593D01*
X589689Y806056D01*
X591844Y808211D01*
X592307Y807809D01*
D02*
G37*
G36*
X429798Y792708D02*
X429889Y792449D01*
X430042Y792221D01*
X430255Y792023D01*
X430530Y791855D01*
X430865Y791718D01*
X431261Y791611D01*
X431718Y791535D01*
X432236Y791489D01*
X432403Y791485D01*
X432562Y791489D01*
X433080Y791534D01*
X433537Y791609D01*
X433933Y791713D01*
X434268Y791848D01*
X434543Y792012D01*
X434756Y792207D01*
X434909Y792431D01*
X435000Y792685D01*
X435031Y792970D01*
X435061Y786902D01*
X435029Y787191D01*
X434935Y787451D01*
X434781Y787679D01*
X434565Y787877D01*
X434287Y788045D01*
X433949Y788182D01*
X433549Y788289D01*
X433088Y788365D01*
X432566Y788411D01*
X432196Y788420D01*
X430042Y788282D01*
X429889Y788238D01*
X429798Y788188D01*
X429767Y788132D01*
Y792998D01*
X429798Y792708D01*
D02*
G37*
G36*
X402555Y787710D02*
X402296Y787700D01*
X402036Y787663D01*
X401776Y787599D01*
X401517Y787510D01*
X401257Y787394D01*
X400997Y787252D01*
X400736Y787083D01*
X400476Y786888D01*
X400215Y786667D01*
X399955Y786420D01*
X397799Y788575D01*
X398047Y788835D01*
X398268Y789096D01*
X398463Y789356D01*
X398632Y789617D01*
X398774Y789877D01*
X398890Y790137D01*
X398979Y790396D01*
X399043Y790656D01*
X399080Y790916D01*
X399090Y791175D01*
X402555Y787710D01*
D02*
G37*
G36*
X378998Y781184D02*
X379089Y780930D01*
X379242Y780706D01*
X379455Y780512D01*
X379729Y780347D01*
X380065Y780213D01*
X380461Y780108D01*
X380918Y780034D01*
X381436Y779989D01*
X382015Y779974D01*
Y776926D01*
X381436Y776911D01*
X380918Y776866D01*
X380461Y776792D01*
X380065Y776687D01*
X379729Y776553D01*
X379455Y776388D01*
X379242Y776194D01*
X379089Y775970D01*
X378998Y775716D01*
X378968Y775432D01*
Y781468D01*
X378998Y781184D01*
D02*
G37*
G36*
X429616Y777672D02*
X429561Y777527D01*
X429573Y777338D01*
X429650Y777107D01*
X429794Y776834D01*
X430004Y776518D01*
X430280Y776159D01*
X431031Y775314D01*
X431506Y774828D01*
X429350Y772672D01*
X428735Y773276D01*
X426758Y774970D01*
X426386Y775213D01*
X426062Y775384D01*
X425786Y775482D01*
X425559Y775509D01*
X425381Y775463D01*
X429737Y777775D01*
X429616Y777672D01*
D02*
G37*
G36*
X435061Y770702D02*
X435030Y770992D01*
X434938Y771251D01*
X434784Y771479D01*
X434568Y771677D01*
X434291Y771845D01*
X433953Y771982D01*
X433553Y772089D01*
X433091Y772165D01*
X432567Y772211D01*
X431982Y772226D01*
Y775274D01*
X432567Y775289D01*
X433091Y775335D01*
X433553Y775411D01*
X433953Y775518D01*
X434291Y775655D01*
X434568Y775823D01*
X434784Y776021D01*
X434938Y776249D01*
X435030Y776508D01*
X435061Y776798D01*
Y770702D01*
D02*
G37*
G36*
X489921Y763181D02*
X489430Y763537D01*
X488848Y763714D01*
X488176Y763711D01*
X487414Y763528D01*
X486561Y763166D01*
X485618Y762624D01*
X484584Y761902D01*
X483460Y761001D01*
X480941Y758660D01*
X476450Y763150D01*
X477711Y764455D01*
X479692Y766794D01*
X480414Y767828D01*
X480956Y768771D01*
X481318Y769624D01*
X481501Y770386D01*
X481504Y771058D01*
X481327Y771640D01*
X480971Y772131D01*
X489921Y763181D01*
D02*
G37*
G36*
X415343Y762763D02*
X415109Y762932D01*
X414831Y763015D01*
X414509Y763012D01*
X414143Y762923D01*
X413734Y762748D01*
X413281Y762486D01*
X412785Y762138D01*
X412244Y761704D01*
X411032Y760577D01*
X408877Y762732D01*
X409484Y763360D01*
X410438Y764485D01*
X410786Y764981D01*
X411048Y765434D01*
X411223Y765843D01*
X411312Y766209D01*
X411315Y766531D01*
X411232Y766809D01*
X411063Y767043D01*
X415343Y762763D01*
D02*
G37*
G36*
X435031Y752030D02*
X435000Y752224D01*
X434909Y752398D01*
X434756Y752550D01*
X434543Y752683D01*
X434268Y752795D01*
X433933Y752887D01*
X433537Y752958D01*
X433080Y753009D01*
X432328Y753037D01*
X432236Y753035D01*
X431718Y752989D01*
X431261Y752913D01*
X430865Y752806D01*
X430530Y752669D01*
X430255Y752501D01*
X430042Y752303D01*
X429889Y752075D01*
X429798Y751815D01*
X429767Y751526D01*
Y756067D01*
X429798Y756073D01*
X429889Y756078D01*
X431982Y756092D01*
Y756098D01*
X432566Y756113D01*
X433088Y756159D01*
X433549Y756235D01*
X433949Y756342D01*
X434287Y756479D01*
X434564Y756647D01*
X434780Y756845D01*
X434935Y757073D01*
X435029Y757332D01*
X435061Y757622D01*
X435031Y752030D01*
D02*
G37*
G36*
X407789Y742438D02*
X407835Y741920D01*
X407911Y741463D01*
X408018Y741067D01*
X408155Y740732D01*
X408323Y740457D01*
X408521Y740244D01*
X408749Y740091D01*
X409008Y740000D01*
X409298Y739969D01*
X403202D01*
X403492Y740000D01*
X403751Y740091D01*
X403979Y740244D01*
X404177Y740457D01*
X404345Y740732D01*
X404482Y741067D01*
X404589Y741463D01*
X404665Y741920D01*
X404711Y742438D01*
X404726Y743018D01*
X407774D01*
X407789Y742438D01*
D02*
G37*
G36*
X374922Y749999D02*
X374382Y749808D01*
X373906Y749489D01*
X373493Y749042D01*
X373144Y748468D01*
X372858Y747766D01*
X372636Y746936D01*
X372477Y745979D01*
X372382Y744895D01*
X372379Y744770D01*
X372654Y740541D01*
X372747Y740223D01*
X372852Y740033D01*
X372970Y739969D01*
X364530D01*
X364810Y740033D01*
X365060Y740223D01*
X365280Y740541D01*
X365471Y740985D01*
X365633Y741557D01*
X365765Y742255D01*
X365868Y743081D01*
X365970Y744842D01*
X365968Y744895D01*
X365873Y745979D01*
X365714Y746936D01*
X365492Y747766D01*
X365206Y748468D01*
X364857Y749042D01*
X364444Y749489D01*
X363968Y749808D01*
X363428Y749999D01*
X362825Y750063D01*
X375525D01*
X374922Y749999D01*
D02*
G37*
G36*
X475707Y735297D02*
X475802Y734213D01*
X475961Y733255D01*
X476183Y732426D01*
X476469Y731724D01*
X476818Y731150D01*
X477231Y730703D01*
X477707Y730384D01*
X478247Y730193D01*
X478850Y730129D01*
X466150D01*
X466753Y730193D01*
X467293Y730384D01*
X467769Y730703D01*
X468182Y731150D01*
X468531Y731724D01*
X468817Y732426D01*
X469039Y733255D01*
X469198Y734213D01*
X469293Y735297D01*
X469325Y736509D01*
X475675D01*
X475707Y735297D01*
D02*
G37*
G36*
X372623Y733504D02*
X372453Y732911D01*
X372460Y732230D01*
X372644Y731463D01*
X373004Y730608D01*
X373542Y729667D01*
X374256Y728638D01*
X375147Y727523D01*
X377460Y725031D01*
X372970Y720540D01*
X372077Y721394D01*
X370324Y722830D01*
X369464Y723414D01*
X368615Y723908D01*
X368455Y723985D01*
X367982Y723643D01*
X366921Y722776D01*
X364530Y720540D01*
X360040Y725031D01*
X361242Y726271D01*
X363143Y728482D01*
X363843Y729453D01*
X364376Y730333D01*
X364741Y731125D01*
X364939Y731826D01*
X364970Y732438D01*
X364834Y732960D01*
X364530Y733391D01*
X368581Y729341D01*
X372970Y734011D01*
X372623Y733504D01*
D02*
G37*
G36*
X428003Y738247D02*
X428194Y737707D01*
X428513Y737231D01*
X428960Y736818D01*
X429534Y736469D01*
X430236Y736183D01*
X431065Y735961D01*
X432023Y735802D01*
X433107Y735707D01*
X434319Y735675D01*
Y729325D01*
X433107Y729293D01*
X432023Y729198D01*
X431065Y729039D01*
X430236Y728817D01*
X429534Y728531D01*
X428960Y728182D01*
X428513Y727769D01*
X428194Y727293D01*
X428003Y726753D01*
X427939Y726150D01*
Y738850D01*
X428003Y738247D01*
D02*
G37*
G36*
X427970Y725031D02*
X427174Y724986D01*
X426368Y724851D01*
X425551Y724626D01*
X424724Y724312D01*
X423885Y723908D01*
X423036Y723414D01*
X422176Y722830D01*
X421305Y722157D01*
X420423Y721394D01*
X419530Y720540D01*
X415040Y725031D01*
X416287Y726322D01*
X418252Y728643D01*
X418969Y729672D01*
X419509Y730614D01*
X419873Y731468D01*
X420060Y732235D01*
X420070Y732915D01*
X419904Y733506D01*
X419561Y734011D01*
X427970Y725031D01*
D02*
G37*
G36*
X463671Y714950D02*
X463607Y715553D01*
X463416Y716093D01*
X463097Y716569D01*
X462650Y716982D01*
X462076Y717331D01*
X461374Y717617D01*
X460545Y717839D01*
X459587Y717998D01*
X458503Y718093D01*
X457290Y718125D01*
Y724475D01*
X458503Y724507D01*
X459587Y724602D01*
X460545Y724761D01*
X461374Y724983D01*
X462076Y725269D01*
X462650Y725618D01*
X463097Y726031D01*
X463416Y726507D01*
X463607Y727047D01*
X463671Y727650D01*
Y714950D01*
D02*
G37*
G36*
X305893Y726597D02*
X306084Y726057D01*
X306403Y725581D01*
X306850Y725168D01*
X307424Y724819D01*
X308126Y724533D01*
X308955Y724311D01*
X309912Y724152D01*
X310997Y724057D01*
X312209Y724025D01*
Y717675D01*
X310997Y717643D01*
X309912Y717548D01*
X308955Y717389D01*
X308126Y717167D01*
X307424Y716881D01*
X306850Y716532D01*
X306403Y716119D01*
X306084Y715643D01*
X305893Y715103D01*
X305829Y714500D01*
Y727200D01*
X305893Y726597D01*
D02*
G37*
G36*
X501466Y787563D02*
X501382Y787285D01*
X501386Y786963D01*
X501475Y786597D01*
X501650Y786188D01*
X501912Y785735D01*
X502260Y785239D01*
X502694Y784698D01*
X503821Y783486D01*
X501665Y781331D01*
X501038Y781938D01*
X499913Y782892D01*
X499417Y783240D01*
X498964Y783502D01*
X498555Y783677D01*
X498189Y783766D01*
X497867Y783770D01*
X497589Y783686D01*
X497355Y783517D01*
X501635Y787797D01*
X501466Y787563D01*
D02*
G37*
G36*
X505729Y778558D02*
X505775Y778040D01*
X505851Y777583D01*
X505958Y777187D01*
X506095Y776852D01*
X506263Y776577D01*
X506461Y776364D01*
X506689Y776211D01*
X506948Y776120D01*
X507238Y776089D01*
X501142D01*
X501432Y776120D01*
X501691Y776211D01*
X501919Y776364D01*
X502117Y776577D01*
X502285Y776852D01*
X502422Y777187D01*
X502529Y777583D01*
X502605Y778040D01*
X502651Y778558D01*
X502666Y779137D01*
X505714D01*
X505729Y778558D01*
D02*
G37*
G36*
X593561Y737194D02*
X597032Y734320D01*
X598721Y733152D01*
X600380Y732165D01*
X602009Y731356D01*
X603607Y730728D01*
X605175Y730279D01*
X606712Y730009D01*
X608219Y729920D01*
X593990Y715690D01*
X594105Y714960D01*
X593808Y714138D01*
X593033Y713645D01*
X591781Y713481D01*
X593990Y715690D01*
X593924Y716111D01*
X593265Y717590D01*
X592128Y719398D01*
X590513Y721536D01*
X588420Y724001D01*
X582800Y729920D01*
X591781Y738900D01*
X593561Y737194D01*
D02*
G37*
D17*
X486410Y769620D02*
D03*
X504190D02*
D03*
D18*
X369600Y816550D02*
D03*
Y841950D02*
D03*
Y803850D02*
D03*
Y829250D02*
D03*
Y753050D02*
D03*
Y765750D02*
D03*
Y791150D02*
D03*
X420400Y829250D02*
D03*
X369600Y778450D02*
D03*
X420400Y841950D02*
D03*
Y753050D02*
D03*
Y816550D02*
D03*
Y765750D02*
D03*
Y791150D02*
D03*
Y778450D02*
D03*
Y803850D02*
D03*
D19*
X442500Y773750D02*
D03*
Y756250D02*
D03*
Y806250D02*
D03*
Y788750D02*
D03*
Y838750D02*
D03*
Y821250D02*
D03*
D20*
X386250Y732500D02*
D03*
X368750D02*
D03*
X406250D02*
D03*
X423750D02*
D03*
X479946Y790956D02*
D03*
X497446Y790956D02*
D03*
D21*
X501540Y833000D02*
G03*
X501540Y833000I-2540J0D01*
G01*
D32*
X386250Y732500D02*
X396976D01*
X369630Y765780D02*
X386050D01*
X386080Y765810D01*
X369600Y765750D02*
X369630Y765780D01*
D33*
X426750Y841950D02*
X437676Y852876D01*
X545024D01*
X600000Y797900D01*
X420400Y841950D02*
X426750D01*
X389830Y778450D02*
X402590Y791210D01*
X369600Y778450D02*
X389830D01*
X420370Y829280D02*
X420400Y829250D01*
X403890Y829280D02*
X420370D01*
X403860Y829310D02*
X403890Y829280D01*
X369630Y791180D02*
X384780D01*
X369600Y791150D02*
X369630Y791180D01*
X384780D02*
X384810Y791210D01*
X468630Y790956D02*
X479946D01*
X479946Y790956D01*
X497446Y787706D02*
X504190Y780962D01*
Y769620D02*
Y780962D01*
X497446Y787706D02*
Y790956D01*
X442722Y838972D02*
Y846328D01*
X442500Y838750D02*
X442722Y838972D01*
X347472Y842010D02*
X347502Y841980D01*
X369570D01*
X356138Y829280D02*
X369570D01*
X369600Y829250D01*
X356108Y829310D02*
X356138Y829280D01*
X369570Y841980D02*
X369600Y841950D01*
X334306Y816550D02*
X369600D01*
X297000Y822450D02*
X328406D01*
X334306Y816550D01*
X297000Y746250D02*
X354600Y803850D01*
X420400Y753050D02*
X421924Y754574D01*
X440824D01*
X442500Y756250D01*
X420400Y803850D02*
X421600Y805050D01*
X441300D01*
X442500Y806250D01*
X354600Y803850D02*
X369600D01*
X420400Y816550D02*
X434550D01*
X439250Y821250D01*
X442500D01*
X420400Y778450D02*
X426750D01*
X428274Y776926D01*
Y775904D02*
Y776926D01*
Y775904D02*
X430428Y773750D01*
X442500D01*
X420400Y791150D02*
X421600Y789950D01*
X441300D01*
X442500Y788750D01*
X406250Y732500D02*
Y757950D01*
X414050Y765750D01*
X420400D01*
D34*
X472500Y721300D02*
Y754710D01*
X486410Y768620D01*
Y769620D01*
X360350Y720850D02*
X368750Y729250D01*
Y732500D02*
X369175Y732925D01*
X368750Y729250D02*
X377699Y720301D01*
X423750Y731425D02*
X424825Y732500D01*
X440205D01*
X451405Y721300D01*
X377699Y720301D02*
X414801D01*
X297000Y720850D02*
X360350D01*
X414801Y720301D02*
X422675Y728175D01*
Y731425D01*
X423750Y732500D01*
X369175Y732925D02*
Y752923D01*
X369302Y753050D01*
X369600D01*
X451405Y721300D02*
X472500D01*
D35*
X497900D02*
X518161Y741561D01*
X580140D02*
X600000Y721700D01*
X518161Y741561D02*
X580140D01*
D36*
X600000Y721700D02*
D03*
D37*
Y747100D02*
D03*
Y772500D02*
D03*
Y797900D02*
D03*
Y823300D02*
D03*
Y848700D02*
D03*
D38*
X345000Y745000D02*
D03*
X516636Y806196D02*
D03*
D39*
X297000Y847850D02*
D03*
Y822450D02*
D03*
Y746250D02*
D03*
Y771650D02*
D03*
Y797050D02*
D03*
X523300Y721300D02*
D03*
X497900D02*
D03*
D40*
X297000Y720850D02*
D03*
D41*
X472500Y721300D02*
D03*
D42*
X396976Y732500D02*
D03*
X386080Y765810D02*
D03*
X402590Y791210D02*
D03*
X403860Y829310D02*
D03*
X384810Y791210D02*
D03*
X442722Y846328D02*
D03*
X468630Y790956D02*
D03*
X347472Y842010D02*
D03*
X356108Y829310D02*
D03*
M02*
