G04*
G04 #@! TF.GenerationSoftware,Altium Limited,Altium Designer,24.9.1 (31)*
G04*
G04 Layer_Color=8388736*
%FSLAX44Y44*%
%MOMM*%
G71*
G04*
G04 #@! TF.SameCoordinates,B5823E4F-61C2-4C15-8B31-12C9E9E13820*
G04*
G04*
G04 #@! TF.FilePolarity,Negative*
G04*
G01*
G75*
%ADD21C,0.5080*%
%ADD22R,1.2016X1.4016*%
%ADD23R,1.9812X0.7112*%
%ADD24R,1.6000X0.9500*%
%ADD25R,0.9500X1.6000*%
%ADD26R,1.7516X1.7516*%
%ADD27C,1.7516*%
%ADD28C,2.1016*%
%ADD29C,1.8796*%
%ADD30R,1.8796X1.8796*%
%ADD31R,1.8796X1.8796*%
D21*
X501540Y833000D02*
G03*
X501540Y833000I-2540J0D01*
G01*
X506620D02*
G03*
X506620Y833000I-7620J0D01*
G01*
D22*
X486410Y769620D02*
D03*
X504190D02*
D03*
D23*
X369600Y816550D02*
D03*
Y841950D02*
D03*
Y803850D02*
D03*
Y829250D02*
D03*
Y753050D02*
D03*
Y765750D02*
D03*
Y791150D02*
D03*
X420400Y829250D02*
D03*
X369600Y778450D02*
D03*
X420400Y841950D02*
D03*
Y753050D02*
D03*
Y816550D02*
D03*
Y765750D02*
D03*
Y791150D02*
D03*
Y778450D02*
D03*
Y803850D02*
D03*
D24*
X442500Y773750D02*
D03*
Y756250D02*
D03*
Y806250D02*
D03*
Y788750D02*
D03*
Y838750D02*
D03*
Y821250D02*
D03*
D25*
X386250Y732500D02*
D03*
X368750D02*
D03*
X406250D02*
D03*
X423750D02*
D03*
X479946Y790956D02*
D03*
X497446Y790956D02*
D03*
D26*
X600000Y721700D02*
D03*
D27*
Y747100D02*
D03*
Y772500D02*
D03*
Y797900D02*
D03*
Y823300D02*
D03*
Y848700D02*
D03*
D28*
X345000Y745000D02*
D03*
X516636Y806196D02*
D03*
D29*
X297000Y847850D02*
D03*
Y822450D02*
D03*
Y746250D02*
D03*
Y771650D02*
D03*
Y797050D02*
D03*
X523300Y721300D02*
D03*
X497900D02*
D03*
D30*
X297000Y720850D02*
D03*
D31*
X472500Y721300D02*
D03*
M02*
