G04*
G04 #@! TF.GenerationSoftware,Altium Limited,Altium Designer,24.9.1 (31)*
G04*
G04 Layer_Color=65535*
%FSLAX44Y44*%
%MOMM*%
G71*
G04*
G04 #@! TF.SameCoordinates,B5823E4F-61C2-4C15-8B31-12C9E9E13820*
G04*
G04*
G04 #@! TF.FilePolarity,Positive*
G04*
G01*
G75*
%ADD10C,0.2032*%
%ADD11C,0.2000*%
%ADD12C,0.1524*%
%ADD13C,0.2540*%
%ADD14C,0.1270*%
%ADD15R,0.4572X1.7780*%
%ADD16R,0.4826X1.3208*%
D10*
X400080Y746700D02*
G03*
X389920Y746700I-5080J0D01*
G01*
X400080Y746700D02*
X406430Y746700D01*
X383570D02*
X389920Y746700D01*
X383570Y848300D02*
X406430D01*
Y746700D02*
Y848300D01*
X383570Y746700D02*
Y848300D01*
X411000Y746750D02*
X429750Y746659D01*
D11*
X569000Y863700D02*
X631000D01*
X569000Y706700D02*
Y863700D01*
X631000Y706700D02*
Y863700D01*
X569000Y706700D02*
X631000D01*
D12*
X478536Y778510D02*
X515874D01*
X478536Y760730D02*
X515874D01*
X478536D02*
Y778510D01*
X515874Y760730D02*
Y778510D01*
X449866Y767540D02*
X449866Y762460D01*
X435134Y767540D02*
X435134Y762460D01*
X449866Y794960D02*
Y800040D01*
X435134D02*
X435134Y794960D01*
X449866Y827460D02*
Y832540D01*
X435134D02*
X435134Y827460D01*
X374960Y725134D02*
X380040D01*
X374960Y739866D02*
X380040D01*
X412460Y739866D02*
X417540Y739866D01*
X412460Y725134D02*
X417540Y725134D01*
X485902Y797560D02*
X491490D01*
X485902Y784352D02*
X491490Y784352D01*
X485902Y797560D02*
X485902Y784352D01*
X491490Y797560D02*
X491490Y784352D01*
D13*
X309700Y860550D02*
X309700Y708150D01*
X284300Y860550D02*
X309700D01*
X284300Y708150D02*
X284300Y860550D01*
X284300Y708150D02*
X309700D01*
X257376Y860550D02*
X284300Y860550D01*
X257376Y708150D02*
X284300D01*
X459800Y708600D02*
Y734000D01*
X536000D01*
Y708600D02*
Y734000D01*
X459800Y708600D02*
X536000D01*
X352618Y837500D02*
Y842578D01*
Y840039D01*
X339922D01*
X337383Y842578D01*
Y845117D01*
X339922Y847657D01*
X337383Y832422D02*
Y827343D01*
Y829882D01*
X352618D01*
X350078Y832422D01*
X524257Y844801D02*
X519179D01*
X521718D01*
Y832106D01*
X519179Y829566D01*
X516639D01*
X514100Y832106D01*
X539492Y829566D02*
X529335D01*
X539492Y839723D01*
Y842262D01*
X536953Y844801D01*
X531874D01*
X529335Y842262D01*
D14*
X553722Y862328D02*
X554992Y859789D01*
X557531Y857250D01*
X560070D01*
X561340Y858520D01*
Y861059D01*
X560070Y862328D01*
X558801D01*
X557531Y861059D01*
Y857250D01*
X561340Y708660D02*
Y711199D01*
Y709930D01*
X553722D01*
X554992Y708660D01*
X355852Y800862D02*
X348234D01*
Y797053D01*
X349504Y795784D01*
X354582D01*
X355852Y797053D01*
Y800862D01*
X354582Y788166D02*
X355852Y789436D01*
Y791975D01*
X354582Y793244D01*
X349504D01*
X348234Y791975D01*
Y789436D01*
X349504Y788166D01*
X355852Y780549D02*
Y785627D01*
X348234D01*
Y780549D01*
X352043Y785627D02*
Y783088D01*
X321491Y856525D02*
X322216Y856888D01*
X322579Y857976D01*
Y858701D01*
X322216Y859790D01*
X321128Y860515D01*
X319314Y860878D01*
X317500D01*
X316049Y860515D01*
X315324Y859790D01*
X314961Y858701D01*
Y858339D01*
X315324Y857250D01*
X316049Y856525D01*
X317138Y856162D01*
X317500D01*
X318589Y856525D01*
X319314Y857250D01*
X319677Y858339D01*
Y858701D01*
X319314Y859790D01*
X318589Y860515D01*
X317500Y860878D01*
X322398Y710837D02*
X322761Y710111D01*
X323849Y709023D01*
X316231D01*
X468470Y740765D02*
X475000D01*
X471735Y737500D02*
Y744030D01*
X467382Y750633D02*
Y747005D01*
X470647Y746642D01*
X470284Y747005D01*
X469921Y748093D01*
Y749182D01*
X470284Y750270D01*
X471009Y750995D01*
X472098Y751358D01*
X472823D01*
X473912Y750995D01*
X474637Y750270D01*
X475000Y749182D01*
Y748093D01*
X474637Y747005D01*
X474274Y746642D01*
X473549Y746279D01*
X474274Y753426D02*
X474637Y753063D01*
X475000Y753426D01*
X474637Y753789D01*
X474274Y753426D01*
X467382Y757634D02*
X467744Y756546D01*
X468833Y755820D01*
X470647Y755458D01*
X471735D01*
X473549Y755820D01*
X474637Y756546D01*
X475000Y757634D01*
Y758360D01*
X474637Y759448D01*
X473549Y760174D01*
X471735Y760536D01*
X470647D01*
X468833Y760174D01*
X467744Y759448D01*
X467382Y758360D01*
Y757634D01*
Y762242D02*
X475000Y765144D01*
X467382Y768046D02*
X475000Y765144D01*
X519882Y737500D02*
X527500D01*
X519882D02*
X527500Y742579D01*
X519882D02*
X527500D01*
X521696Y750125D02*
X520970Y749762D01*
X520244Y749036D01*
X519882Y748311D01*
Y746860D01*
X520244Y746134D01*
X520970Y745409D01*
X521696Y745046D01*
X522784Y744683D01*
X524598D01*
X525686Y745046D01*
X526412Y745409D01*
X527137Y746134D01*
X527500Y746860D01*
Y748311D01*
X527137Y749036D01*
X526412Y749762D01*
X525686Y750125D01*
X498895Y737384D02*
Y740649D01*
X498533Y741737D01*
X498170Y742100D01*
X497444Y742462D01*
X496356D01*
X495630Y742100D01*
X495268Y741737D01*
X494905Y740649D01*
Y737384D01*
X502523D01*
X494905Y744168D02*
X502523Y745982D01*
X494905Y747795D02*
X502523Y745982D01*
X494905Y747795D02*
X502523Y749609D01*
X494905Y751423D02*
X502523Y749609D01*
X494905Y752947D02*
X502523D01*
X494905D02*
Y756212D01*
X495268Y757300D01*
X495630Y757663D01*
X496356Y758026D01*
X497081D01*
X497807Y757663D01*
X498170Y757300D01*
X498533Y756212D01*
Y752947D01*
Y755486D02*
X502523Y758026D01*
X534138Y762970D02*
Y758254D01*
X541757D01*
Y762970D01*
X537766Y758254D02*
Y761156D01*
X534138Y764240D02*
X541757D01*
Y771641D02*
X534138Y768738D01*
X541757Y765836D01*
X539217Y766925D02*
Y770552D01*
X542845Y773418D02*
X534138Y778497D01*
Y781544D02*
X541757D01*
X534138Y779005D02*
Y784084D01*
Y784991D02*
X541757D01*
Y792392D02*
X534138Y789489D01*
X541757Y786587D01*
X539217Y787675D02*
Y791303D01*
X535952Y800518D02*
X535590D01*
X534864Y800881D01*
X534501Y801243D01*
X534138Y801969D01*
Y803420D01*
X534501Y804146D01*
X534864Y804508D01*
X535590Y804871D01*
X536315D01*
X537041Y804508D01*
X538129Y803783D01*
X541757Y800155D01*
Y805234D01*
X534138Y807665D02*
Y811655D01*
X537041Y809479D01*
Y810567D01*
X537403Y811292D01*
X537766Y811655D01*
X538855Y812018D01*
X539580D01*
X540668Y811655D01*
X541394Y810930D01*
X541757Y809841D01*
Y808753D01*
X541394Y807665D01*
X541031Y807302D01*
X540306Y806939D01*
X535952Y814086D02*
X535590D01*
X534864Y814449D01*
X534501Y814811D01*
X534138Y815537D01*
Y816988D01*
X534501Y817714D01*
X534864Y818076D01*
X535590Y818439D01*
X536315D01*
X537041Y818076D01*
X538129Y817351D01*
X541757Y813723D01*
Y818802D01*
X342644Y812802D02*
X343913Y814071D01*
Y816610D01*
X342644Y817880D01*
X337566D01*
X336296Y816610D01*
Y814071D01*
X337566Y812802D01*
X336296Y810263D02*
X343913D01*
X341374Y807723D01*
X343913Y805184D01*
X336296D01*
X343913Y798836D02*
Y801375D01*
X342644Y802645D01*
X337566D01*
X336296Y801375D01*
Y798836D01*
X337566Y797567D01*
X342644D01*
X343913Y798836D01*
X342644Y789949D02*
X343913Y791219D01*
Y793758D01*
X342644Y795027D01*
X341374D01*
X340105Y793758D01*
Y791219D01*
X338835Y789949D01*
X337566D01*
X336296Y791219D01*
Y793758D01*
X337566Y795027D01*
X336296Y787410D02*
X341374Y782331D01*
X343913Y779792D02*
Y774714D01*
Y777253D01*
X336296D01*
X343913Y772175D02*
Y767096D01*
Y769636D01*
X336296D01*
X343913Y764557D02*
X336296D01*
Y759479D01*
X547101Y801368D02*
Y793750D01*
Y801368D02*
X550366D01*
X551454Y801006D01*
X551817Y800643D01*
X552180Y799917D01*
Y799192D01*
X551817Y798466D01*
X551454Y798103D01*
X550366Y797741D01*
X547101D01*
X549640D02*
X552180Y793750D01*
X553885Y801368D02*
X558964Y793750D01*
Y801368D02*
X553885Y793750D01*
X560669Y801368D02*
Y793750D01*
Y801368D02*
X563208D01*
X564297Y801006D01*
X565022Y800280D01*
X565385Y799555D01*
X565748Y798466D01*
Y796652D01*
X565385Y795564D01*
X565022Y794838D01*
X564297Y794113D01*
X563208Y793750D01*
X560669D01*
X551744Y848234D02*
X551382Y848959D01*
X550656Y849685D01*
X549931Y850048D01*
X548479D01*
X547754Y849685D01*
X547028Y848959D01*
X546666Y848234D01*
X546303Y847145D01*
Y845331D01*
X546666Y844243D01*
X547028Y843518D01*
X547754Y842792D01*
X548479Y842429D01*
X549931D01*
X550656Y842792D01*
X551382Y843518D01*
X551744Y844243D01*
Y845331D01*
X549931D02*
X551744D01*
X553486Y850048D02*
Y842429D01*
Y850048D02*
X558565Y842429D01*
Y850048D02*
Y842429D01*
X560669Y850048D02*
Y842429D01*
Y850048D02*
X563208D01*
X564297Y849685D01*
X565022Y848959D01*
X565385Y848234D01*
X565748Y847145D01*
Y845331D01*
X565385Y844243D01*
X565022Y843518D01*
X564297Y842792D01*
X563208Y842429D01*
X560669D01*
X319212Y849224D02*
X318849Y849950D01*
X318123Y850676D01*
X317398Y851038D01*
X315947D01*
X315221Y850676D01*
X314496Y849950D01*
X314133Y849224D01*
X313770Y848136D01*
Y846322D01*
X314133Y845234D01*
X314496Y844508D01*
X315221Y843783D01*
X315947Y843420D01*
X317398D01*
X318123Y843783D01*
X318849Y844508D01*
X319212Y845234D01*
Y846322D01*
X317398D02*
X319212D01*
X320953Y851038D02*
Y843420D01*
Y851038D02*
X326032Y843420D01*
Y851038D02*
Y843420D01*
X328136Y851038D02*
Y843420D01*
Y851038D02*
X330676D01*
X331764Y850676D01*
X332490Y849950D01*
X332852Y849224D01*
X333215Y848136D01*
Y846322D01*
X332852Y845234D01*
X332490Y844508D01*
X331764Y843783D01*
X330676Y843420D01*
X328136D01*
X313770Y774838D02*
Y767220D01*
Y774838D02*
X317035D01*
X318123Y774476D01*
X318486Y774113D01*
X318849Y773387D01*
Y772662D01*
X318486Y771936D01*
X318123Y771573D01*
X317035Y771211D01*
X313770D01*
X316310D02*
X318849Y767220D01*
X323093Y774838D02*
Y767220D01*
X320554Y774838D02*
X325633D01*
X331619Y773750D02*
X330893Y774476D01*
X329805Y774838D01*
X328354D01*
X327265Y774476D01*
X326540Y773750D01*
Y773025D01*
X326903Y772299D01*
X327265Y771936D01*
X327991Y771573D01*
X330168Y770848D01*
X330893Y770485D01*
X331256Y770122D01*
X331619Y769397D01*
Y768308D01*
X330893Y767583D01*
X329805Y767220D01*
X328354D01*
X327265Y767583D01*
X326540Y768308D01*
X313770Y800606D02*
Y792988D01*
Y800606D02*
X317035D01*
X318123Y800244D01*
X318486Y799881D01*
X318849Y799155D01*
Y798430D01*
X318486Y797704D01*
X318123Y797341D01*
X317035Y796979D01*
X313770D01*
X316310D02*
X318849Y792988D01*
X320554Y800606D02*
X325633Y792988D01*
Y800606D02*
X320554Y792988D01*
X327338Y800606D02*
Y792988D01*
Y800606D02*
X329877D01*
X330966Y800244D01*
X331691Y799518D01*
X332054Y798792D01*
X332417Y797704D01*
Y795890D01*
X332054Y794802D01*
X331691Y794076D01*
X330966Y793351D01*
X329877Y792988D01*
X327338D01*
X316310Y825752D02*
Y818134D01*
X313770Y825752D02*
X318849D01*
X319756D02*
X324835Y818134D01*
Y825752D02*
X319756Y818134D01*
X326540Y825752D02*
Y818134D01*
Y825752D02*
X329079D01*
X330168Y825390D01*
X330893Y824664D01*
X331256Y823939D01*
X331619Y822850D01*
Y821036D01*
X331256Y819948D01*
X330893Y819222D01*
X330168Y818497D01*
X329079Y818134D01*
X326540D01*
X319212Y747075D02*
X318849Y747800D01*
X318123Y748526D01*
X317398Y748888D01*
X315947D01*
X315221Y748526D01*
X314496Y747800D01*
X314133Y747075D01*
X313770Y745986D01*
Y744172D01*
X314133Y743084D01*
X314496Y742358D01*
X315221Y741633D01*
X315947Y741270D01*
X317398D01*
X318123Y741633D01*
X318849Y742358D01*
X319212Y743084D01*
X323892Y748888D02*
Y741270D01*
X321352Y748888D02*
X326431D01*
X332417Y747800D02*
X331691Y748526D01*
X330603Y748888D01*
X329152D01*
X328064Y748526D01*
X327338Y747800D01*
Y747075D01*
X327701Y746349D01*
X328064Y745986D01*
X328789Y745623D01*
X330966Y744898D01*
X331691Y744535D01*
X332054Y744172D01*
X332417Y743447D01*
Y742358D01*
X331691Y741633D01*
X330603Y741270D01*
X329152D01*
X328064Y741633D01*
X327338Y742358D01*
X317035Y722950D02*
Y716420D01*
X313770Y719685D02*
X320300D01*
X326903Y724038D02*
X323275D01*
X322912Y720773D01*
X323275Y721136D01*
X324363Y721499D01*
X325452D01*
X326540Y721136D01*
X327265Y720411D01*
X327628Y719322D01*
Y718597D01*
X327265Y717508D01*
X326540Y716783D01*
X325452Y716420D01*
X324363D01*
X323275Y716783D01*
X322912Y717146D01*
X322549Y717871D01*
X329696Y717146D02*
X329333Y716783D01*
X329696Y716420D01*
X330059Y716783D01*
X329696Y717146D01*
X333904Y724038D02*
X332816Y723676D01*
X332090Y722587D01*
X331728Y720773D01*
Y719685D01*
X332090Y717871D01*
X332816Y716783D01*
X333904Y716420D01*
X334630D01*
X335718Y716783D01*
X336444Y717871D01*
X336806Y719685D01*
Y720773D01*
X336444Y722587D01*
X335718Y723676D01*
X334630Y724038D01*
X333904D01*
X338512D02*
X341414Y716420D01*
X344316Y724038D02*
X341414Y716420D01*
X457407Y848187D02*
X460310Y840569D01*
X463212Y848187D02*
X460310Y840569D01*
X464554Y841294D02*
X464192Y840932D01*
X464554Y840569D01*
X464917Y840932D01*
X464554Y841294D01*
X466586Y846736D02*
X467311Y847099D01*
X468400Y848187D01*
Y840569D01*
X472536Y841294D02*
X472173Y840932D01*
X472536Y840569D01*
X472898Y840932D01*
X472536Y841294D01*
X474930Y846373D02*
Y846736D01*
X475293Y847462D01*
X475655Y847824D01*
X476381Y848187D01*
X477832D01*
X478558Y847824D01*
X478920Y847462D01*
X479283Y846736D01*
Y846011D01*
X478920Y845285D01*
X478195Y844197D01*
X474567Y840569D01*
X479646D01*
X451773Y861169D02*
Y853551D01*
Y861169D02*
X455038D01*
X456126Y860807D01*
X456489Y860444D01*
X456852Y859718D01*
Y858993D01*
X456489Y858267D01*
X456126Y857904D01*
X455038Y857542D01*
X451773D01*
X454312D02*
X456852Y853551D01*
X463635Y860081D02*
X462910Y860807D01*
X461822Y861169D01*
X460370D01*
X459282Y860807D01*
X458557Y860081D01*
Y859355D01*
X458919Y858630D01*
X459282Y858267D01*
X460008Y857904D01*
X462184Y857179D01*
X462910Y856816D01*
X463273Y856453D01*
X463635Y855728D01*
Y854639D01*
X462910Y853914D01*
X461822Y853551D01*
X460370D01*
X459282Y853914D01*
X458557Y854639D01*
X465703Y859355D02*
Y859718D01*
X466066Y860444D01*
X466429Y860807D01*
X467155Y861169D01*
X468606D01*
X469331Y860807D01*
X469694Y860444D01*
X470057Y859718D01*
Y858993D01*
X469694Y858267D01*
X468968Y857179D01*
X465341Y853551D01*
X470420D01*
X472850Y861169D02*
X476841D01*
X474664Y858267D01*
X475752D01*
X476478Y857904D01*
X476841Y857542D01*
X477203Y856453D01*
Y855728D01*
X476841Y854639D01*
X476115Y853914D01*
X475027Y853551D01*
X473938D01*
X472850Y853914D01*
X472487Y854277D01*
X472125Y855002D01*
X479271Y859355D02*
Y859718D01*
X479634Y860444D01*
X479997Y860807D01*
X480723Y861169D01*
X482174D01*
X482899Y860807D01*
X483262Y860444D01*
X483625Y859718D01*
Y858993D01*
X483262Y858267D01*
X482536Y857179D01*
X478909Y853551D01*
X483988D01*
X491678Y861169D02*
Y853551D01*
Y861169D02*
X494581Y853551D01*
X497483Y861169D02*
X494581Y853551D01*
X497483Y861169D02*
Y853551D01*
X501836Y861169D02*
X501111Y860807D01*
X500385Y860081D01*
X500022Y859355D01*
X499660Y858267D01*
Y856453D01*
X500022Y855365D01*
X500385Y854639D01*
X501111Y853914D01*
X501836Y853551D01*
X503287D01*
X504013Y853914D01*
X504739Y854639D01*
X505101Y855365D01*
X505464Y856453D01*
Y858267D01*
X505101Y859355D01*
X504739Y860081D01*
X504013Y860807D01*
X503287Y861169D01*
X501836D01*
X507242D02*
Y853551D01*
Y861169D02*
X509781D01*
X510869Y860807D01*
X511595Y860081D01*
X511958Y859355D01*
X512321Y858267D01*
Y856453D01*
X511958Y855365D01*
X511595Y854639D01*
X510869Y853914D01*
X509781Y853551D01*
X507242D01*
X514026Y861169D02*
Y855728D01*
X514388Y854639D01*
X515114Y853914D01*
X516202Y853551D01*
X516928D01*
X518016Y853914D01*
X518742Y854639D01*
X519104Y855728D01*
Y861169D01*
X521209D02*
Y853551D01*
X525562D01*
X531113Y861169D02*
X526396D01*
Y853551D01*
X531113D01*
X526396Y857542D02*
X529299D01*
X547899Y775118D02*
Y767500D01*
Y775118D02*
X551164D01*
X552252Y774756D01*
X552615Y774393D01*
X552978Y773667D01*
Y772942D01*
X552615Y772216D01*
X552252Y771853D01*
X551164Y771491D01*
X547899D01*
X550438D02*
X552978Y767500D01*
X557223Y775118D02*
Y767500D01*
X554683Y775118D02*
X559762D01*
X565748Y774030D02*
X565022Y774756D01*
X563934Y775118D01*
X562483D01*
X561394Y774756D01*
X560669Y774030D01*
Y773304D01*
X561032Y772579D01*
X561394Y772216D01*
X562120Y771853D01*
X564297Y771128D01*
X565022Y770765D01*
X565385Y770402D01*
X565748Y769677D01*
Y768588D01*
X565022Y767863D01*
X563934Y767500D01*
X562483D01*
X561394Y767863D01*
X560669Y768588D01*
X550438Y826769D02*
Y819151D01*
X547899Y826769D02*
X552978D01*
X553885D02*
X558964Y819151D01*
Y826769D02*
X553885Y819151D01*
X560669Y826769D02*
Y819151D01*
Y826769D02*
X563208D01*
X564297Y826406D01*
X565022Y825681D01*
X565385Y824955D01*
X565748Y823867D01*
Y822053D01*
X565385Y820965D01*
X565022Y820239D01*
X564297Y819514D01*
X563208Y819151D01*
X560669D01*
X552543Y747904D02*
X552180Y748630D01*
X551454Y749356D01*
X550729Y749718D01*
X549278D01*
X548552Y749356D01*
X547826Y748630D01*
X547464Y747904D01*
X547101Y746816D01*
Y745002D01*
X547464Y743914D01*
X547826Y743188D01*
X548552Y742463D01*
X549278Y742100D01*
X550729D01*
X551454Y742463D01*
X552180Y743188D01*
X552543Y743914D01*
X557223Y749718D02*
Y742100D01*
X554683Y749718D02*
X559762D01*
X565748Y748630D02*
X565022Y749356D01*
X563934Y749718D01*
X562483D01*
X561394Y749356D01*
X560669Y748630D01*
Y747904D01*
X561032Y747179D01*
X561394Y746816D01*
X562120Y746453D01*
X564297Y745728D01*
X565022Y745365D01*
X565385Y745002D01*
X565748Y744277D01*
Y743188D01*
X565022Y742463D01*
X563934Y742100D01*
X562483D01*
X561394Y742463D01*
X560669Y743188D01*
X545106Y720328D02*
X548371D01*
X549459Y720691D01*
X549822Y721053D01*
X550185Y721779D01*
Y722867D01*
X549822Y723593D01*
X549459Y723956D01*
X548371Y724318D01*
X545106D01*
Y716700D01*
X551890Y724318D02*
X553703Y716700D01*
X555517Y724318D02*
X553703Y716700D01*
X555517Y724318D02*
X557331Y716700D01*
X559145Y724318D02*
X557331Y716700D01*
X560669Y724318D02*
Y716700D01*
Y724318D02*
X563934D01*
X565022Y723956D01*
X565385Y723593D01*
X565748Y722867D01*
Y722142D01*
X565385Y721416D01*
X565022Y721053D01*
X563934Y720691D01*
X560669D01*
X563208D02*
X565748Y716700D01*
X440751Y725109D02*
X438212D01*
X439482D01*
Y718761D01*
X438212Y717491D01*
X436942D01*
X435673Y718761D01*
X443290Y717491D02*
Y725109D01*
X447099D01*
X448369Y723839D01*
Y721300D01*
X447099Y720030D01*
X443290D01*
X450908Y717491D02*
X453447D01*
X452178D01*
Y725109D01*
X450908Y723839D01*
X454961Y796230D02*
X453691Y794961D01*
Y792422D01*
X454961Y791152D01*
X460039D01*
X461309Y792422D01*
Y794961D01*
X460039Y796230D01*
X453691Y803848D02*
Y798770D01*
X457500D01*
X456230Y801309D01*
Y802578D01*
X457500Y803848D01*
X460039D01*
X461309Y802578D01*
Y800039D01*
X460039Y798770D01*
X455423Y828802D02*
X454153Y827533D01*
Y824994D01*
X455423Y823724D01*
X460501D01*
X461771Y824994D01*
Y827533D01*
X460501Y828802D01*
X461771Y835150D02*
X454153D01*
X457962Y831342D01*
Y836420D01*
X454915Y763524D02*
X453645Y762255D01*
Y759716D01*
X454915Y758446D01*
X459993D01*
X461263Y759716D01*
Y762255D01*
X459993Y763524D01*
X454915Y766064D02*
X453645Y767333D01*
Y769872D01*
X454915Y771142D01*
X456184D01*
X457454Y769872D01*
Y768603D01*
Y769872D01*
X458724Y771142D01*
X459993D01*
X461263Y769872D01*
Y767333D01*
X459993Y766064D01*
X414730Y718729D02*
X413461Y719999D01*
X410922D01*
X409652Y718729D01*
Y713651D01*
X410922Y712381D01*
X413461D01*
X414730Y713651D01*
X422348Y712381D02*
X417270D01*
X422348Y717460D01*
Y718729D01*
X421078Y719999D01*
X418539D01*
X417270Y718729D01*
X378130D02*
X376860Y719999D01*
X374321D01*
X373052Y718729D01*
Y713651D01*
X374321Y712381D01*
X376860D01*
X378130Y713651D01*
X380669Y712381D02*
X383208D01*
X381939D01*
Y719999D01*
X380669Y718729D01*
X390400Y859027D02*
Y852679D01*
X391669Y851409D01*
X394208D01*
X395478Y852679D01*
Y859027D01*
X398017Y851409D02*
X400556D01*
X399287D01*
Y859027D01*
X398017Y857757D01*
X483110Y802895D02*
Y810513D01*
X486918D01*
X488188Y809243D01*
Y806704D01*
X486918Y805434D01*
X483110D01*
X485649D02*
X488188Y802895D01*
X490727D02*
X493266D01*
X491997D01*
Y810513D01*
X490727Y809243D01*
X519324Y774759D02*
Y767141D01*
X523133D01*
X524402Y768411D01*
Y773489D01*
X523133Y774759D01*
X519324D01*
X526941Y767141D02*
X529481D01*
X528211D01*
Y774759D01*
X526941Y773489D01*
D15*
X513588Y769620D02*
D03*
D16*
X488823Y790969D02*
D03*
M02*
