G04*
G04 #@! TF.GenerationSoftware,Altium Limited,Altium Designer,24.9.1 (31)*
G04*
G04 Layer_Physical_Order=2*
G04 Layer_Color=16711680*
%FSLAX44Y44*%
%MOMM*%
G71*
G04*
G04 #@! TF.SameCoordinates,B5823E4F-61C2-4C15-8B31-12C9E9E13820*
G04*
G04*
G04 #@! TF.FilePolarity,Positive*
G04*
G01*
G75*
%ADD33C,0.3048*%
%ADD36R,1.6500X1.6500*%
%ADD37C,1.6500*%
%ADD38C,2.0000*%
%ADD39C,1.7780*%
%ADD40R,1.7780X1.7780*%
%ADD41R,1.7780X1.7780*%
%ADD42C,0.7000*%
G36*
X632410Y704009D02*
X256155D01*
X256156Y864690D01*
X632410D01*
Y704009D01*
D02*
G37*
%LPC*%
G36*
X601354Y858982D02*
X598646D01*
X596031Y858281D01*
X593687Y856928D01*
X593448Y856689D01*
X595084Y855053D01*
X593647Y853616D01*
X592011Y855252D01*
X591772Y855013D01*
X590419Y852669D01*
X589718Y850054D01*
Y847346D01*
X590419Y844731D01*
X591772Y842387D01*
X592011Y842148D01*
X593647Y843783D01*
X595084Y842347D01*
X593448Y840711D01*
X593687Y840472D01*
X596031Y839119D01*
X598646Y838418D01*
X601354D01*
X603969Y839119D01*
X606313Y840472D01*
X606552Y840711D01*
X604916Y842347D01*
X606353Y843783D01*
X607989Y842148D01*
X608228Y842387D01*
X609581Y844731D01*
X610282Y847346D01*
Y850054D01*
X609581Y852669D01*
X608228Y855013D01*
X607989Y855252D01*
X606353Y853616D01*
X604916Y855053D01*
X606552Y856689D01*
X606313Y856928D01*
X603969Y858281D01*
X601354Y858982D01*
D02*
G37*
G36*
X298438Y858772D02*
X295562D01*
X292784Y858028D01*
X290294Y856590D01*
X289995Y856292D01*
X291628Y854659D01*
X290191Y853222D01*
X288559Y854855D01*
X288260Y854556D01*
X286822Y852066D01*
X286078Y849288D01*
Y846412D01*
X286822Y843634D01*
X288260Y841144D01*
X288559Y840845D01*
X290191Y842478D01*
X291628Y841041D01*
X289995Y839409D01*
X290294Y839110D01*
X292784Y837672D01*
X295562Y836928D01*
X298438D01*
X301216Y837672D01*
X303706Y839110D01*
X304005Y839409D01*
X302372Y841041D01*
X303809Y842478D01*
X305441Y840845D01*
X305740Y841144D01*
X307178Y843634D01*
X307922Y846412D01*
Y849288D01*
X307178Y852066D01*
X305740Y854556D01*
X305441Y854855D01*
X303809Y853222D01*
X302372Y854659D01*
X304005Y856292D01*
X303706Y856590D01*
X301216Y858028D01*
X298438Y858772D01*
D02*
G37*
G36*
X348471Y847034D02*
X346473D01*
X344626Y846269D01*
X343213Y844856D01*
X343212Y844853D01*
X343160Y844821D01*
X343074Y844701D01*
X343046Y844671D01*
X343010Y844641D01*
X342957Y844606D01*
X342878Y844568D01*
X342768Y844527D01*
X342621Y844489D01*
X342438Y844457D01*
X342215Y844436D01*
X341908Y844427D01*
X341763Y844361D01*
X341671D01*
X341558Y844378D01*
X341536Y844361D01*
X341204D01*
X340014Y844125D01*
X339006Y843451D01*
X304939Y809384D01*
X304809Y809341D01*
X304405Y808992D01*
X304004Y808730D01*
X303502Y808480D01*
X302895Y808250D01*
X302184Y808048D01*
X301368Y807878D01*
X300469Y807747D01*
X298298Y807598D01*
X297076Y807589D01*
X296781Y807464D01*
X295629D01*
X292980Y806754D01*
X290606Y805383D01*
X288667Y803444D01*
X287296Y801070D01*
X286586Y798421D01*
Y795679D01*
X287296Y793030D01*
X288667Y790656D01*
X290606Y788717D01*
X292980Y787346D01*
X295629Y786636D01*
X298371D01*
X301020Y787346D01*
X303394Y788717D01*
X305333Y790656D01*
X306704Y793030D01*
X307414Y795679D01*
Y796816D01*
X307539Y797095D01*
X307602Y799499D01*
X307694Y800500D01*
X307828Y801418D01*
X307998Y802234D01*
X308200Y802945D01*
X308430Y803552D01*
X308680Y804054D01*
X308942Y804455D01*
X309291Y804859D01*
X309334Y804989D01*
X342491Y838146D01*
X342536D01*
X342687Y838081D01*
X343015Y838075D01*
X343273Y838060D01*
X343794Y837996D01*
X343980Y837959D01*
X344161Y837911D01*
X344319Y837860D01*
X344453Y837805D01*
X344566Y837750D01*
X344718Y837660D01*
X344915Y837631D01*
X346473Y836986D01*
X348471D01*
X350318Y837751D01*
X351731Y839164D01*
X352496Y841011D01*
Y843009D01*
X351731Y844856D01*
X350318Y846269D01*
X348471Y847034D01*
D02*
G37*
G36*
X357107Y834334D02*
X355109D01*
X353262Y833569D01*
X351849Y832156D01*
X351399Y831069D01*
X351189Y830829D01*
X351135Y830673D01*
X351088Y830559D01*
X351031Y830447D01*
X350815Y830096D01*
X350717Y829959D01*
X350157Y829301D01*
X349941Y829079D01*
X349880Y828925D01*
X304939Y783984D01*
X304809Y783941D01*
X304405Y783592D01*
X304004Y783330D01*
X303502Y783080D01*
X302895Y782850D01*
X302184Y782648D01*
X301368Y782478D01*
X300469Y782347D01*
X298298Y782198D01*
X297076Y782189D01*
X296781Y782064D01*
X295629D01*
X292980Y781354D01*
X290606Y779983D01*
X288667Y778044D01*
X287296Y775670D01*
X286586Y773021D01*
Y770279D01*
X287296Y767630D01*
X288667Y765256D01*
X290606Y763317D01*
X292980Y761946D01*
X295629Y761236D01*
X298371D01*
X301020Y761946D01*
X303394Y763317D01*
X305333Y765256D01*
X306704Y767630D01*
X307414Y770279D01*
Y771416D01*
X307539Y771695D01*
X307602Y774099D01*
X307694Y775100D01*
X307828Y776018D01*
X307998Y776834D01*
X308200Y777545D01*
X308430Y778152D01*
X308680Y778654D01*
X308942Y779055D01*
X309291Y779459D01*
X309334Y779589D01*
X353509Y823764D01*
X353657Y823820D01*
X353881Y824031D01*
X354050Y824169D01*
X354195Y824270D01*
X354314Y824338D01*
X354404Y824378D01*
X354464Y824397D01*
X354499Y824403D01*
X354518Y824404D01*
X354531Y824402D01*
X354660Y824371D01*
X354837Y824398D01*
X355109Y824286D01*
X357107D01*
X358954Y825051D01*
X360367Y826464D01*
X361132Y828311D01*
Y830309D01*
X360367Y832156D01*
X358954Y833569D01*
X357107Y834334D01*
D02*
G37*
G36*
X404859D02*
X402861D01*
X401014Y833569D01*
X399601Y832156D01*
X398836Y830309D01*
Y829610D01*
X398712Y829342D01*
X398705Y829166D01*
X398691Y829068D01*
X398665Y828961D01*
X398624Y828842D01*
X398565Y828709D01*
X398484Y828562D01*
X398379Y828400D01*
X398248Y828225D01*
X398089Y828038D01*
X397873Y827811D01*
X397816Y827661D01*
X393844Y823689D01*
X393171Y822681D01*
X392934Y821492D01*
Y793035D01*
X392011Y792093D01*
X390394Y791536D01*
X390258Y791643D01*
X389834Y792209D01*
X389069Y794056D01*
X387656Y795469D01*
X385809Y796234D01*
X383811D01*
X381964Y795469D01*
X380551Y794056D01*
X379786Y792209D01*
Y790211D01*
X380551Y788364D01*
X381964Y786951D01*
X383811Y786186D01*
X384510D01*
X384778Y786062D01*
X384954Y786055D01*
X385052Y786041D01*
X385159Y786015D01*
X385278Y785974D01*
X385410Y785915D01*
X385558Y785834D01*
X385720Y785729D01*
X385895Y785598D01*
X386082Y785439D01*
X386309Y785223D01*
X386459Y785166D01*
X426722Y744902D01*
X427731Y744229D01*
X428920Y743992D01*
X586703D01*
X586828Y743930D01*
X587333Y743895D01*
X587771Y743807D01*
X588262Y743649D01*
X588804Y743412D01*
X589393Y743092D01*
X590027Y742686D01*
X590684Y742203D01*
X592168Y740919D01*
X592952Y740149D01*
X593249Y740029D01*
X593999Y739279D01*
X596227Y737992D01*
X598713Y737326D01*
X601287D01*
X603773Y737992D01*
X606001Y739279D01*
X607821Y741099D01*
X609108Y743327D01*
X609774Y745813D01*
Y748387D01*
X609108Y750873D01*
X607821Y753101D01*
X606001Y754921D01*
X603773Y756208D01*
X601287Y756874D01*
X598713D01*
X596227Y756208D01*
X593999Y754921D01*
X593260Y754183D01*
X592976Y754074D01*
X591397Y752582D01*
X590700Y752009D01*
X590027Y751514D01*
X589393Y751108D01*
X588804Y750788D01*
X588262Y750551D01*
X587771Y750393D01*
X587333Y750305D01*
X586828Y750270D01*
X586703Y750208D01*
X430207D01*
X413563Y766852D01*
X414615Y769392D01*
X586703D01*
X586828Y769330D01*
X587333Y769295D01*
X587771Y769207D01*
X588262Y769049D01*
X588804Y768812D01*
X589393Y768492D01*
X590027Y768086D01*
X590684Y767603D01*
X592168Y766319D01*
X592952Y765549D01*
X593249Y765429D01*
X593999Y764679D01*
X596227Y763392D01*
X598713Y762726D01*
X601287D01*
X603773Y763392D01*
X606001Y764679D01*
X607821Y766499D01*
X609108Y768727D01*
X609774Y771213D01*
Y773787D01*
X609108Y776273D01*
X607821Y778501D01*
X606001Y780321D01*
X603773Y781608D01*
X601287Y782274D01*
X598713D01*
X596227Y781608D01*
X593999Y780321D01*
X593260Y779583D01*
X592976Y779474D01*
X591397Y777982D01*
X590700Y777409D01*
X590027Y776914D01*
X589393Y776508D01*
X588804Y776188D01*
X588262Y775951D01*
X587771Y775793D01*
X587333Y775705D01*
X586828Y775670D01*
X586703Y775608D01*
X413327D01*
X404939Y783996D01*
X405436Y786951D01*
X406849Y788364D01*
X407614Y790211D01*
Y790910D01*
X407738Y791178D01*
X407745Y791354D01*
X407759Y791452D01*
X407785Y791559D01*
X407826Y791678D01*
X407885Y791811D01*
X407966Y791958D01*
X408071Y792120D01*
X408202Y792295D01*
X408361Y792482D01*
X408577Y792709D01*
X408634Y792859D01*
X435967Y820192D01*
X514955D01*
X515119Y817720D01*
X512188Y816935D01*
X509560Y815417D01*
X507415Y813272D01*
X505897Y810644D01*
X505112Y807713D01*
Y804679D01*
X505897Y801748D01*
X507415Y799120D01*
X509560Y796974D01*
X512188Y795457D01*
X515119Y794672D01*
X518153D01*
X521084Y795457D01*
X523712Y796974D01*
X525858Y799120D01*
X527375Y801748D01*
X528160Y804679D01*
Y807713D01*
X527375Y810644D01*
X525858Y813272D01*
X523712Y815417D01*
X521084Y816935D01*
X518153Y817720D01*
X518317Y820192D01*
X586703D01*
X586828Y820130D01*
X587333Y820095D01*
X587771Y820007D01*
X588262Y819849D01*
X588804Y819612D01*
X589393Y819292D01*
X590027Y818886D01*
X590684Y818403D01*
X592168Y817119D01*
X592952Y816349D01*
X593249Y816229D01*
X593999Y815479D01*
X596227Y814192D01*
X598713Y813526D01*
X601287D01*
X603773Y814192D01*
X606001Y815479D01*
X607821Y817299D01*
X609108Y819527D01*
X609774Y822013D01*
Y824587D01*
X609108Y827073D01*
X607821Y829301D01*
X606001Y831121D01*
X603773Y832408D01*
X601287Y833074D01*
X598713D01*
X596227Y832408D01*
X593999Y831121D01*
X593260Y830383D01*
X592976Y830274D01*
X591396Y828782D01*
X590700Y828209D01*
X590027Y827714D01*
X589393Y827308D01*
X588804Y826988D01*
X588262Y826751D01*
X587771Y826593D01*
X587333Y826505D01*
X586828Y826470D01*
X586703Y826408D01*
X434680D01*
X433491Y826171D01*
X432482Y825498D01*
X404239Y797254D01*
X404089Y797197D01*
X403862Y796981D01*
X403675Y796822D01*
X403500Y796691D01*
X403338Y796586D01*
X403190Y796505D01*
X403058Y796446D01*
X402939Y796405D01*
X402832Y796379D01*
X402734Y796365D01*
X402558Y796358D01*
X402290Y796234D01*
X401591D01*
X399150Y797972D01*
Y820205D01*
X402211Y823266D01*
X402361Y823323D01*
X402588Y823539D01*
X402775Y823698D01*
X402950Y823829D01*
X403112Y823934D01*
X403260Y824015D01*
X403392Y824074D01*
X403511Y824115D01*
X403618Y824141D01*
X403716Y824155D01*
X403892Y824162D01*
X404160Y824286D01*
X404859D01*
X406706Y825051D01*
X408119Y826464D01*
X408884Y828311D01*
Y830309D01*
X408119Y832156D01*
X406706Y833569D01*
X404859Y834334D01*
D02*
G37*
G36*
X298371Y832864D02*
X295629D01*
X292980Y832154D01*
X290606Y830783D01*
X288667Y828844D01*
X287296Y826470D01*
X286586Y823821D01*
Y821079D01*
X287296Y818430D01*
X288667Y816056D01*
X290606Y814117D01*
X292980Y812746D01*
X295629Y812036D01*
X298371D01*
X301020Y812746D01*
X303394Y814117D01*
X305333Y816056D01*
X306704Y818430D01*
X307414Y821079D01*
Y823821D01*
X306704Y826470D01*
X305333Y828844D01*
X303394Y830783D01*
X301020Y832154D01*
X298371Y832864D01*
D02*
G37*
G36*
X601287Y807674D02*
X598713D01*
X596227Y807008D01*
X593999Y805721D01*
X592179Y803901D01*
X590892Y801673D01*
X590226Y799187D01*
Y796613D01*
X590892Y794127D01*
X592179Y791899D01*
X593999Y790079D01*
X596227Y788792D01*
X598713Y788126D01*
X601287D01*
X603773Y788792D01*
X606001Y790079D01*
X607821Y791899D01*
X609108Y794127D01*
X609774Y796613D01*
Y799187D01*
X609108Y801673D01*
X607821Y803901D01*
X606001Y805721D01*
X603773Y807008D01*
X601287Y807674D01*
D02*
G37*
G36*
X298371Y756664D02*
X295629D01*
X292980Y755954D01*
X290606Y754583D01*
X288667Y752644D01*
X287296Y750270D01*
X286586Y747621D01*
Y744879D01*
X287296Y742230D01*
X288667Y739856D01*
X290606Y737917D01*
X292980Y736546D01*
X295629Y735836D01*
X298371D01*
X301020Y736546D01*
X303394Y737917D01*
X305333Y739856D01*
X306704Y742230D01*
X307414Y744879D01*
Y747621D01*
X306704Y750270D01*
X305333Y752644D01*
X303394Y754583D01*
X301020Y755954D01*
X298371Y756664D01*
D02*
G37*
G36*
X346517Y756524D02*
X343483D01*
X340552Y755739D01*
X337924Y754221D01*
X335779Y752076D01*
X334261Y749448D01*
X333476Y746517D01*
Y743483D01*
X334261Y740552D01*
X335779Y737924D01*
X337924Y735779D01*
X340552Y734261D01*
X343483Y733476D01*
X346517D01*
X349448Y734261D01*
X352076Y735779D01*
X354221Y737924D01*
X355739Y740552D01*
X356524Y743483D01*
Y746517D01*
X355739Y749448D01*
X354221Y752076D01*
X352076Y754221D01*
X349448Y755739D01*
X346517Y756524D01*
D02*
G37*
G36*
X609774Y731474D02*
X590226D01*
Y711926D01*
X609774D01*
Y731474D01*
D02*
G37*
G36*
X524671Y731714D02*
X521929D01*
X519280Y731004D01*
X516906Y729633D01*
X514967Y727694D01*
X513596Y725320D01*
X512886Y722671D01*
Y719929D01*
X513596Y717280D01*
X514967Y714906D01*
X516906Y712967D01*
X519280Y711596D01*
X521929Y710886D01*
X524671D01*
X527320Y711596D01*
X529694Y712967D01*
X531633Y714906D01*
X533004Y717280D01*
X533714Y719929D01*
Y722671D01*
X533004Y725320D01*
X531633Y727694D01*
X529694Y729633D01*
X527320Y731004D01*
X524671Y731714D01*
D02*
G37*
G36*
X499271D02*
X496529D01*
X493880Y731004D01*
X491506Y729633D01*
X489567Y727694D01*
X488196Y725320D01*
X487486Y722671D01*
Y719929D01*
X488196Y717280D01*
X489567Y714906D01*
X491506Y712967D01*
X493880Y711596D01*
X496529Y710886D01*
X499271D01*
X501920Y711596D01*
X504294Y712967D01*
X506233Y714906D01*
X507604Y717280D01*
X508314Y719929D01*
Y722671D01*
X507604Y725320D01*
X506233Y727694D01*
X504294Y729633D01*
X501920Y731004D01*
X499271Y731714D01*
D02*
G37*
G36*
X482914D02*
X462086D01*
Y710886D01*
X482914D01*
Y731714D01*
D02*
G37*
G36*
X307414Y731264D02*
X286586D01*
Y710436D01*
X307414D01*
Y731264D01*
D02*
G37*
%LPD*%
G36*
X345561Y839078D02*
X345352Y839202D01*
X345127Y839313D01*
X344885Y839410D01*
X344626Y839495D01*
X344350Y839567D01*
X344057Y839625D01*
X343420Y839704D01*
X343077Y839723D01*
X342717Y839730D01*
X341957Y842778D01*
X342319Y842789D01*
X342657Y842821D01*
X342971Y842875D01*
X343261Y842951D01*
X343528Y843049D01*
X343770Y843168D01*
X343989Y843309D01*
X344184Y843472D01*
X344355Y843656D01*
X344502Y843862D01*
X345561Y839078D01*
D02*
G37*
G36*
X308043Y805937D02*
X307622Y805450D01*
X307246Y804875D01*
X306917Y804213D01*
X306633Y803465D01*
X306395Y802628D01*
X306202Y801705D01*
X306056Y800694D01*
X305955Y799596D01*
X305889Y797139D01*
X297089Y805939D01*
X298361Y805949D01*
X300644Y806106D01*
X301655Y806252D01*
X302578Y806445D01*
X303414Y806683D01*
X304163Y806967D01*
X304825Y807296D01*
X305400Y807672D01*
X305887Y808092D01*
X308043Y805937D01*
D02*
G37*
G36*
X355051Y825974D02*
X354811Y826032D01*
X354568Y826057D01*
X354322Y826047D01*
X354074Y826003D01*
X353823Y825925D01*
X353569Y825813D01*
X353313Y825666D01*
X353054Y825486D01*
X352792Y825271D01*
X352527Y825022D01*
X351125Y827930D01*
X351378Y828190D01*
X352016Y828940D01*
X352189Y829180D01*
X352474Y829644D01*
X352586Y829868D01*
X352679Y830087D01*
X352751Y830300D01*
X355051Y825974D01*
D02*
G37*
G36*
X308043Y780537D02*
X307622Y780050D01*
X307246Y779475D01*
X306917Y778813D01*
X306633Y778064D01*
X306395Y777228D01*
X306202Y776305D01*
X306056Y775294D01*
X305955Y774196D01*
X305889Y771739D01*
X297089Y780539D01*
X298361Y780549D01*
X300644Y780706D01*
X301655Y780852D01*
X302578Y781045D01*
X303414Y781283D01*
X304163Y781567D01*
X304825Y781896D01*
X305400Y782272D01*
X305887Y782692D01*
X308043Y780537D01*
D02*
G37*
G36*
X403825Y825810D02*
X403566Y825800D01*
X403306Y825763D01*
X403046Y825699D01*
X402787Y825610D01*
X402527Y825494D01*
X402267Y825352D01*
X402006Y825183D01*
X401746Y824988D01*
X401485Y824767D01*
X401225Y824520D01*
X399070Y826675D01*
X399317Y826935D01*
X399538Y827196D01*
X399733Y827456D01*
X399902Y827717D01*
X400044Y827977D01*
X400160Y828237D01*
X400249Y828496D01*
X400313Y828756D01*
X400350Y829016D01*
X400360Y829275D01*
X403825Y825810D01*
D02*
G37*
G36*
X594108Y817525D02*
X593287Y818333D01*
X591713Y819693D01*
X590962Y820246D01*
X590233Y820713D01*
X589528Y821096D01*
X588847Y821393D01*
X588189Y821606D01*
X587554Y821733D01*
X586942Y821776D01*
Y824824D01*
X587554Y824866D01*
X588189Y824994D01*
X588847Y825207D01*
X589528Y825504D01*
X590233Y825887D01*
X590962Y826354D01*
X591713Y826907D01*
X592488Y827545D01*
X594108Y829075D01*
X594108Y817525D01*
D02*
G37*
G36*
X407380Y793845D02*
X407133Y793585D01*
X406912Y793324D01*
X406717Y793064D01*
X406548Y792803D01*
X406406Y792543D01*
X406290Y792283D01*
X406200Y792024D01*
X406137Y791764D01*
X406100Y791504D01*
X406090Y791245D01*
X402625Y794710D01*
X402884Y794720D01*
X403144Y794757D01*
X403404Y794820D01*
X403663Y794910D01*
X403923Y795026D01*
X404183Y795168D01*
X404444Y795337D01*
X404704Y795532D01*
X404965Y795753D01*
X405225Y796001D01*
X407380Y793845D01*
D02*
G37*
G36*
X388320Y790916D02*
X388357Y790656D01*
X388420Y790396D01*
X388510Y790137D01*
X388626Y789877D01*
X388768Y789617D01*
X388937Y789356D01*
X389132Y789096D01*
X389353Y788835D01*
X389600Y788575D01*
X387445Y786420D01*
X387185Y786667D01*
X386924Y786888D01*
X386664Y787083D01*
X386403Y787252D01*
X386143Y787394D01*
X385883Y787510D01*
X385624Y787599D01*
X385364Y787663D01*
X385104Y787700D01*
X384845Y787710D01*
X388310Y791175D01*
X388320Y790916D01*
D02*
G37*
G36*
X594108Y766725D02*
X593287Y767533D01*
X591713Y768893D01*
X590962Y769446D01*
X590233Y769913D01*
X589528Y770296D01*
X588847Y770593D01*
X588189Y770806D01*
X587554Y770934D01*
X586942Y770976D01*
Y774024D01*
X587554Y774066D01*
X588189Y774194D01*
X588847Y774407D01*
X589528Y774704D01*
X590233Y775087D01*
X590962Y775554D01*
X591713Y776107D01*
X592488Y776745D01*
X594108Y778275D01*
X594108Y766725D01*
D02*
G37*
G36*
Y741325D02*
X593287Y742133D01*
X591713Y743493D01*
X590962Y744046D01*
X590233Y744513D01*
X589528Y744896D01*
X588847Y745193D01*
X588189Y745406D01*
X587554Y745534D01*
X586942Y745576D01*
Y748624D01*
X587554Y748667D01*
X588189Y748794D01*
X588847Y749007D01*
X589528Y749304D01*
X590233Y749687D01*
X590962Y750154D01*
X591713Y750707D01*
X592488Y751345D01*
X594108Y752875D01*
X594108Y741325D01*
D02*
G37*
D33*
X402590Y791210D02*
X434680Y823300D01*
X600000D01*
X396042Y788498D02*
X412040Y772500D01*
X396042Y821492D02*
X403860Y829310D01*
X396042Y788498D02*
Y821492D01*
X412040Y772500D02*
X600000D01*
X428920Y747100D02*
X600000D01*
X384810Y791210D02*
X428920Y747100D01*
X341204Y841254D02*
X346716D01*
X297000Y797050D02*
X341204Y841254D01*
X346716D02*
X347472Y842010D01*
X353904Y828554D02*
X355352D01*
X297000Y771650D02*
X353904Y828554D01*
X355352D02*
X356108Y829310D01*
D36*
X600000Y721700D02*
D03*
D37*
Y747100D02*
D03*
Y772500D02*
D03*
Y797900D02*
D03*
Y823300D02*
D03*
Y848700D02*
D03*
D38*
X345000Y745000D02*
D03*
X516636Y806196D02*
D03*
D39*
X297000Y847850D02*
D03*
Y822450D02*
D03*
Y746250D02*
D03*
Y771650D02*
D03*
Y797050D02*
D03*
X523300Y721300D02*
D03*
X497900D02*
D03*
D40*
X297000Y720850D02*
D03*
D41*
X472500Y721300D02*
D03*
D42*
X396976Y732500D02*
D03*
X386080Y765810D02*
D03*
X402590Y791210D02*
D03*
X403860Y829310D02*
D03*
X384810Y791210D02*
D03*
X442722Y846328D02*
D03*
X468630Y790956D02*
D03*
X347472Y842010D02*
D03*
X356108Y829310D02*
D03*
M02*
