M48
;Layer_Color=9474304
;FILE_FORMAT=4:4
METRIC,LZ
;TYPE=PLATED
T01F00S00C0.4000
T02F00S00C1.1000
;TYPE=NON_PLATED
T03F00S00C2.0000
%
T01
X00396976Y007325
X0040259Y0079121
X0046863Y00790956
X0038481Y0079121
X0038608Y0076581
X00356108Y0082931
X00347472Y0084201
X0040386Y0082931
X00442722Y00846328
T02
X004725Y007213
X004979
X005233
X006Y007217
Y007471
Y007725
X00297Y0077165
Y0074625
Y0072085
Y0079705
Y0082245
Y0084785
X006Y008487
Y008233
Y007979
T03
X00345Y00745
X00516636Y00806196
M30
